# Blender 5.2.0 LTS
# www.blender.org
mtllib cylinder.mtl
o cylinder
v 0.008605 -0.004961 0.002505
v 0.008605 -0.005000 0.002505
v 0.008605 -0.004961 -0.002494
v 0.008605 -0.005039 0.002505
v 0.008605 -0.005039 -0.002494
v 0.008605 -0.005000 -0.002495
v 0.008605 -0.002537 -0.000425
v 0.008605 -0.002500 0.000005
v 0.008605 -0.007463 0.000435
v 0.008605 -0.007500 0.000005
v 0.008605 -0.004532 -0.002450
v 0.008605 -0.004116 -0.002333
v 0.008605 -0.002828 -0.001233
v 0.008605 -0.003727 -0.002147
v 0.008605 -0.003074 -0.001588
v 0.008605 -0.003376 -0.001896
v 0.008605 -0.002537 0.000435
v 0.008605 -0.002648 0.000852
v 0.008605 -0.002828 0.001244
v 0.008605 -0.003727 0.002157
v 0.008605 -0.004116 0.002344
v 0.008605 -0.004532 0.002461
v 0.008605 -0.007463 -0.000425
v 0.008605 -0.007352 -0.000842
v 0.008605 -0.007172 -0.001233
v 0.008605 -0.006273 -0.002147
v 0.008605 -0.005884 -0.002333
v 0.008605 -0.005468 -0.002450
v 0.008605 -0.002648 -0.000842
v 0.008605 -0.003074 0.001599
v 0.008605 -0.003376 0.001906
v 0.008605 -0.006624 0.001906
v 0.008605 -0.006926 0.001599
v 0.008605 -0.006273 0.002157
v 0.008605 -0.007172 0.001244
v 0.008605 -0.005884 0.002344
v 0.008605 -0.005468 0.002461
v 0.008605 -0.007352 0.000852
v 0.008605 -0.006926 -0.001588
v 0.008605 -0.006624 -0.001896
v 0.008660 -0.004607 0.002474
v 0.008651 -0.005000 0.002505
v 0.008682 -0.004272 0.002397
v 0.008664 -0.004532 0.002461
v 0.008721 -0.003896 0.002248
v 0.008696 -0.004116 0.002344
v 0.008772 -0.003548 0.002041
v 0.008744 -0.003727 0.002157
v 0.008870 -0.003040 0.001557
v 0.008863 -0.003074 0.001599
v 0.008829 -0.003234 0.001775
v 0.008802 -0.003376 0.001906
v 0.008887 -0.002963 0.001456
v 0.008919 -0.002828 0.001244
v 0.008939 -0.002751 0.001097
v 0.008965 -0.002648 0.000852
v 0.008976 -0.002608 0.000733
v 0.008995 -0.002537 0.000435
v 0.008999 -0.002521 0.000332
v 0.009005 -0.002500 0.000005
v 0.009005 -0.002501 -0.000070
v 0.008995 -0.002537 -0.000425
v 0.008993 -0.002545 -0.000469
v 0.008965 -0.002648 -0.000842
v 0.008964 -0.002651 -0.000852
v 0.008922 -0.002819 -0.001217
v 0.008869 -0.003048 -0.001557
v 0.008919 -0.002828 -0.001234
v 0.008810 -0.003332 -0.001857
v 0.008863 -0.003074 -0.001589
v 0.008753 -0.003667 -0.002111
v 0.008802 -0.003376 -0.001896
v 0.008705 -0.004033 -0.002300
v 0.008744 -0.003727 -0.002147
v 0.008670 -0.004422 -0.002427
v 0.008696 -0.004116 -0.002333
v 0.008651 -0.005000 -0.002495
v 0.008654 -0.004753 -0.002483
v 0.008663 -0.004531 -0.002451
v -0.002495 0.015039 0.008605
v -0.002495 0.015000 0.008605
v 0.002505 0.015039 0.008605
v -0.002495 0.014961 0.008605
v 0.002505 0.014961 0.008605
v 0.002505 0.015000 0.008605
v 0.000435 0.017463 0.008605
v 0.000005 0.017500 0.008605
v -0.000425 0.012537 0.008605
v 0.000005 0.012500 0.008605
v 0.002461 0.015468 0.008605
v 0.002344 0.015884 0.008605
v 0.001244 0.017172 0.008605
v 0.002157 0.016273 0.008605
v 0.001599 0.016926 0.008605
v 0.001906 0.016624 0.008605
v -0.000425 0.017463 0.008605
v -0.000842 0.017352 0.008605
v -0.001234 0.017172 0.008605
v -0.002147 0.016273 0.008605
v -0.002333 0.015884 0.008605
v -0.002451 0.015468 0.008605
v 0.000435 0.012537 0.008605
v 0.000852 0.012648 0.008605
v 0.001244 0.012828 0.008605
v 0.002157 0.013727 0.008605
v 0.002344 0.014116 0.008605
v 0.002461 0.014532 0.008605
v 0.000852 0.017352 0.008605
v -0.001588 0.016926 0.008605
v -0.001896 0.016624 0.008605
v -0.001896 0.013376 0.008605
v -0.001588 0.013074 0.008605
v -0.002147 0.013727 0.008605
v -0.001234 0.012828 0.008605
v -0.002333 0.014116 0.008605
v -0.002451 0.014532 0.008605
v -0.000842 0.012648 0.008605
v 0.001599 0.013074 0.008605
v 0.001906 0.013376 0.008605
v -0.002463 0.015393 0.008660
v -0.002495 0.015000 0.008651
v -0.002386 0.015728 0.008682
v -0.002450 0.015468 0.008664
v -0.002238 0.016104 0.008721
v -0.002333 0.015884 0.008696
v -0.002031 0.016452 0.008772
v -0.002147 0.016273 0.008744
v -0.001589 0.016926 0.008863
v -0.001685 0.016842 0.008845
v -0.001764 0.016766 0.008830
v -0.001896 0.016624 0.008802
v -0.001446 0.017037 0.008888
v -0.001234 0.017172 0.008920
v -0.001087 0.017249 0.008939
v -0.000842 0.017352 0.008965
v -0.000722 0.017392 0.008976
v -0.000425 0.017463 0.008995
v -0.000321 0.017479 0.008999
v 0.000005 0.017500 0.009005
v 0.000405 0.017468 0.008996
v 0.000435 0.017463 0.008995
v 0.000732 0.017392 0.008976
v 0.000852 0.017352 0.008965
v 0.001102 0.017246 0.008938
v 0.001244 0.017171 0.008920
v 0.001906 0.016624 0.008802
v 0.001769 0.016772 0.008831
v 0.001695 0.016842 0.008845
v 0.001599 0.016926 0.008863
v 0.001453 0.017038 0.008888
v 0.002344 0.015884 0.008696
v 0.002252 0.016097 0.008720
v 0.002157 0.016273 0.008744
v 0.002040 0.016454 0.008772
v 0.002505 0.015000 0.008651
v 0.002484 0.015326 0.008657
v 0.002461 0.015469 0.008664
v 0.002397 0.015728 0.008682
v -0.008595 0.035039 -0.002494
v -0.008595 0.035000 -0.002495
v -0.008595 0.035039 0.002505
v -0.008595 0.034961 -0.002494
v -0.008595 0.034961 0.002505
v -0.008595 0.035000 0.002505
v -0.008595 0.037463 0.000435
v -0.008595 0.037500 0.000005
v -0.008595 0.035468 0.002461
v -0.008595 0.035884 0.002344
v -0.008595 0.037172 0.001244
v -0.008595 0.036273 0.002157
v -0.008595 0.036926 0.001599
v -0.008595 0.036624 0.001906
v -0.008595 0.037463 -0.000425
v -0.008595 0.037352 -0.000842
v -0.008595 0.037172 -0.001233
v -0.008595 0.036273 -0.002147
v -0.008595 0.035884 -0.002333
v -0.008595 0.035468 -0.002450
v -0.008595 0.032828 -0.001233
v -0.008595 0.034532 -0.002450
v -0.008595 0.032648 -0.000842
v -0.008595 0.032537 -0.000425
v -0.008595 0.032500 0.000005
v -0.008595 0.037352 0.000852
v -0.008595 0.036926 -0.001588
v -0.008595 0.036624 -0.001896
v -0.008595 0.033376 -0.001896
v -0.008595 0.033074 -0.001588
v -0.008595 0.033727 -0.002147
v -0.008595 0.034116 -0.002333
v -0.008595 0.032537 0.000435
v -0.008595 0.032648 0.000852
v -0.008595 0.032828 0.001244
v -0.008595 0.033727 0.002157
v -0.008595 0.034116 0.002344
v -0.008595 0.034532 0.002461
v -0.008595 0.033074 0.001599
v -0.008595 0.033376 0.001906
v -0.008650 0.035393 -0.002463
v -0.008641 0.035000 -0.002495
v -0.008671 0.035728 -0.002386
v -0.008653 0.035468 -0.002450
v -0.008711 0.036104 -0.002238
v -0.008686 0.035884 -0.002333
v -0.008762 0.036452 -0.002031
v -0.008734 0.036273 -0.002147
v -0.008860 0.036960 -0.001547
v -0.008853 0.036926 -0.001589
v -0.008819 0.036766 -0.001764
v -0.008792 0.036624 -0.001896
v -0.008877 0.037037 -0.001446
v -0.008909 0.037172 -0.001234
v -0.008928 0.037249 -0.001087
v -0.008955 0.037352 -0.000842
v -0.008965 0.037392 -0.000722
v -0.008985 0.037463 -0.000425
v -0.008989 0.037479 -0.000321
v -0.008995 0.037500 0.000005
v -0.008995 0.037499 0.000080
v -0.008985 0.037463 0.000435
v -0.008982 0.037455 0.000479
v -0.008955 0.037352 0.000852
v -0.008954 0.037349 0.000862
v -0.008911 0.037181 0.001228
v -0.008858 0.036952 0.001567
v -0.008909 0.037172 0.001244
v -0.008800 0.036668 0.001867
v -0.008853 0.036926 0.001599
v -0.008743 0.036333 0.002121
v -0.008792 0.036624 0.001906
v -0.008695 0.035967 0.002311
v -0.008734 0.036273 0.002157
v -0.008660 0.035578 0.002438
v -0.008686 0.035884 0.002344
v -0.008641 0.035000 0.002505
v -0.008644 0.035247 0.002493
v -0.008653 0.035469 0.002461
v -0.002495 0.054961 -0.008595
v -0.002495 0.055000 -0.008595
v 0.002505 0.054961 -0.008595
v -0.001234 0.057172 -0.008595
v -0.000842 0.057352 -0.008595
v 0.002505 0.055039 -0.008595
v -0.002333 0.055884 -0.008595
v -0.002147 0.056273 -0.008595
v -0.001896 0.056624 -0.008595
v -0.001588 0.056926 -0.008595
v -0.000425 0.057463 -0.008595
v 0.000005 0.057500 -0.008595
v 0.000435 0.057463 -0.008595
v 0.000852 0.057352 -0.008595
v 0.001244 0.057172 -0.008595
v 0.001599 0.056926 -0.008595
v 0.002461 0.054532 -0.008595
v 0.001599 0.053074 -0.008595
v 0.001244 0.052828 -0.008595
v 0.000852 0.052648 -0.008595
v 0.000435 0.052537 -0.008595
v 0.000005 0.052500 -0.008595
v -0.000425 0.052537 -0.008595
v -0.000842 0.052648 -0.008595
v -0.001234 0.052828 -0.008595
v -0.001588 0.053074 -0.008595
v -0.001896 0.053376 -0.008595
v -0.002147 0.053727 -0.008595
v 0.002505 0.055000 -0.008595
v -0.002495 0.055039 -0.008595
v -0.002451 0.055468 -0.008595
v 0.001906 0.056624 -0.008595
v 0.002157 0.056273 -0.008595
v 0.002461 0.055468 -0.008595
v 0.002344 0.055884 -0.008595
v 0.002344 0.054116 -0.008595
v 0.002157 0.053727 -0.008595
v 0.001906 0.053376 -0.008595
v -0.002333 0.054116 -0.008595
v -0.002451 0.054532 -0.008595
v 0.002505 0.055000 -0.008641
v 0.002473 0.055400 -0.008650
v 0.002461 0.055469 -0.008653
v 0.002398 0.055726 -0.008671
v 0.002344 0.055884 -0.008686
v 0.002252 0.056096 -0.008710
v 0.002157 0.056273 -0.008734
v 0.002044 0.056447 -0.008761
v 0.001906 0.056624 -0.008792
v 0.001778 0.056763 -0.008819
v 0.001696 0.056842 -0.008835
v 0.001102 0.057247 -0.008928
v 0.001244 0.057172 -0.008909
v 0.001460 0.057034 -0.008876
v 0.001599 0.056926 -0.008853
v 0.000852 0.057352 -0.008955
v 0.000733 0.057392 -0.008965
v 0.000435 0.057463 -0.008984
v 0.000332 0.057479 -0.008989
v 0.000005 0.057500 -0.008995
v -0.000395 0.057468 -0.008986
v -0.000425 0.057463 -0.008984
v -0.000722 0.057392 -0.008965
v -0.000842 0.057352 -0.008955
v -0.001094 0.057245 -0.008927
v -0.001234 0.057172 -0.008909
v -0.001896 0.056624 -0.008792
v -0.001758 0.056772 -0.008820
v -0.001685 0.056842 -0.008835
v -0.001589 0.056926 -0.008853
v -0.001445 0.057037 -0.008877
v -0.002333 0.055884 -0.008686
v -0.002242 0.056095 -0.008710
v -0.002146 0.056273 -0.008734
v -0.002028 0.056454 -0.008762
v -0.002495 0.055000 -0.008641
v -0.002474 0.055328 -0.008647
v -0.002451 0.055469 -0.008653
v -0.002387 0.055726 -0.008671
v -0.002451 -0.024532 -0.008595
v -0.002333 -0.024116 -0.008595
v 0.002505 -0.024961 -0.008595
v -0.002147 -0.023727 -0.008595
v -0.001896 -0.023376 -0.008595
v -0.001588 -0.023074 -0.008595
v -0.001234 -0.022828 -0.008595
v -0.000842 -0.022648 -0.008595
v -0.000425 -0.022537 -0.008595
v 0.000005 -0.022500 -0.008595
v 0.000435 -0.022537 -0.008595
v -0.002495 -0.024961 -0.008595
v 0.002505 -0.025000 -0.008595
v -0.002495 -0.025000 -0.008595
v 0.002505 -0.025039 -0.008595
v -0.002495 -0.025039 -0.008595
v 0.002461 -0.025468 -0.008595
v 0.002344 -0.025884 -0.008595
v 0.001599 -0.026926 -0.008595
v 0.001244 -0.027172 -0.008595
v 0.000852 -0.027352 -0.008595
v 0.000435 -0.027463 -0.008595
v 0.000005 -0.027500 -0.008595
v -0.000425 -0.027463 -0.008595
v -0.000842 -0.027352 -0.008595
v -0.001234 -0.027172 -0.008595
v -0.002451 -0.025468 -0.008595
v -0.001588 -0.026926 -0.008595
v -0.001896 -0.026624 -0.008595
v -0.002147 -0.026273 -0.008595
v 0.000852 -0.022648 -0.008595
v 0.001244 -0.022828 -0.008595
v 0.002461 -0.024532 -0.008595
v 0.001599 -0.023074 -0.008595
v 0.001906 -0.023376 -0.008595
v 0.002157 -0.023727 -0.008595
v 0.002157 -0.026273 -0.008595
v 0.001906 -0.026624 -0.008595
v -0.002333 -0.025884 -0.008595
v 0.002344 -0.024116 -0.008595
v 0.002505 -0.025000 -0.008641
v 0.002473 -0.024600 -0.008650
v 0.002461 -0.024531 -0.008653
v 0.002398 -0.024274 -0.008671
v 0.002344 -0.024116 -0.008686
v 0.002252 -0.023904 -0.008710
v 0.002157 -0.023727 -0.008734
v 0.002044 -0.023553 -0.008761
v 0.001906 -0.023376 -0.008792
v 0.001778 -0.023237 -0.008819
v 0.001696 -0.023158 -0.008835
v 0.001102 -0.022753 -0.008928
v 0.001244 -0.022828 -0.008909
v 0.001460 -0.022966 -0.008876
v 0.001599 -0.023074 -0.008853
v 0.000852 -0.022648 -0.008955
v 0.000733 -0.022608 -0.008965
v 0.000435 -0.022537 -0.008984
v 0.000332 -0.022521 -0.008989
v 0.000005 -0.022500 -0.008995
v -0.000395 -0.022532 -0.008986
v -0.000425 -0.022537 -0.008984
v -0.000722 -0.022608 -0.008965
v -0.000842 -0.022648 -0.008955
v -0.001094 -0.022755 -0.008927
v -0.001234 -0.022828 -0.008909
v -0.001896 -0.023376 -0.008792
v -0.001758 -0.023228 -0.008820
v -0.001589 -0.023074 -0.008853
v -0.001445 -0.022963 -0.008877
v -0.002333 -0.024116 -0.008686
v -0.002242 -0.023905 -0.008710
v -0.002146 -0.023727 -0.008734
v -0.002028 -0.023546 -0.008762
v -0.002495 -0.025000 -0.008641
v -0.002474 -0.024672 -0.008647
v -0.002451 -0.024531 -0.008653
v -0.002387 -0.024274 -0.008671
v 0.000458 -0.074600 -0.003483
v 0.000804 -0.074600 -0.003708
v 0.004283 -0.074600 -0.002514
v 0.001994 -0.074600 0.000990
v 0.001582 -0.074600 0.000956
v 0.004485 -0.074600 -0.001716
v 0.001182 -0.074600 0.000855
v 0.004417 -0.074600 -0.002123
v 0.000154 -0.074600 -0.003203
v 0.000804 -0.074600 0.000689
v 0.000458 -0.074600 0.000463
v 0.000154 -0.074600 0.000183
v -0.000099 -0.074600 -0.000142
v -0.000296 -0.074600 -0.000506
v -0.000430 -0.074600 -0.000896
v 0.003833 -0.074600 -0.003203
v 0.001582 -0.074600 -0.003976
v 0.003529 -0.074600 -0.003483
v 0.001994 -0.074600 -0.004010
v 0.002405 -0.074600 -0.003976
v 0.002806 -0.074600 -0.003874
v 0.003184 -0.074600 -0.003708
v 0.001182 -0.074600 -0.003874
v 0.004087 -0.074600 -0.002877
v -0.000498 -0.074600 -0.001303
v -0.000498 -0.074600 -0.001716
v -0.000430 -0.074600 -0.002123
v -0.000296 -0.074600 -0.002514
v -0.000099 -0.074600 -0.002877
v 0.004485 -0.074600 -0.001303
v 0.002806 -0.074600 0.000855
v 0.002405 -0.074600 0.000956
v 0.004417 -0.074600 -0.000896
v 0.004283 -0.074600 -0.000506
v 0.004087 -0.074600 -0.000142
v 0.003833 -0.074600 0.000183
v 0.003529 -0.074600 0.000463
v 0.003184 -0.074600 0.000689
v 0.001994 -0.075000 -0.004010
v 0.002405 -0.075000 -0.003976
v 0.002806 -0.075000 -0.003874
v 0.003184 -0.075000 -0.003708
v 0.003529 -0.075000 -0.003483
v 0.003833 -0.075000 -0.003203
v 0.004087 -0.075000 -0.002877
v 0.004283 -0.075000 -0.002514
v 0.004417 -0.075000 -0.002123
v 0.004485 -0.075000 -0.001716
v 0.004485 -0.075000 -0.001303
v 0.004417 -0.075000 -0.000896
v 0.004283 -0.075000 -0.000506
v 0.004087 -0.075000 -0.000142
v 0.003833 -0.075000 0.000183
v 0.003529 -0.075000 0.000463
v 0.003184 -0.075000 0.000689
v 0.002806 -0.075000 0.000855
v 0.002405 -0.075000 0.000956
v 0.001994 -0.075000 0.000990
v 0.002806 0.074600 -0.003874
v 0.002405 0.074600 -0.003976
v 0.004485 0.074600 -0.001303
v 0.004417 0.074600 -0.000896
v 0.001582 0.074600 0.000956
v 0.001994 0.074600 -0.004010
v 0.001994 0.074600 0.000990
v 0.002405 0.074600 0.000956
v 0.002806 0.074600 0.000855
v 0.001582 0.074600 -0.003976
v 0.001182 0.074600 -0.003874
v 0.000804 0.074600 -0.003708
v 0.000458 0.074600 -0.003483
v 0.000154 0.074600 -0.003203
v -0.000099 0.074600 -0.002877
v -0.000296 0.074600 -0.002514
v -0.000430 0.074600 -0.002123
v 0.001182 0.074600 0.000855
v 0.000804 0.074600 0.000689
v 0.003184 0.074600 0.000689
v 0.003529 0.074600 0.000463
v 0.003833 0.074600 0.000183
v 0.004485 0.074600 -0.001716
v 0.004417 0.074600 -0.002123
v 0.004283 0.074600 -0.002514
v 0.003833 0.074600 -0.003203
v 0.003529 0.074600 -0.003483
v 0.003184 0.074600 -0.003708
v -0.000498 0.074600 -0.001303
v -0.000430 0.074600 -0.000896
v 0.000458 0.074600 0.000463
v -0.000296 0.074600 -0.000506
v -0.000099 0.074600 -0.000142
v 0.000154 0.074600 0.000183
v 0.004087 0.074600 -0.000142
v 0.004283 0.074600 -0.000506
v 0.004087 0.074600 -0.002877
v -0.000498 0.074600 -0.001716
v 0.001994 0.075000 0.000990
v 0.002405 0.075000 0.000956
v 0.002806 0.075000 0.000855
v 0.003184 0.075000 0.000689
v 0.003529 0.075000 0.000463
v 0.003833 0.075000 0.000183
v 0.004087 0.075000 -0.000142
v 0.004283 0.075000 -0.000506
v 0.004417 0.075000 -0.000896
v 0.004485 0.075000 -0.001303
v 0.004485 0.075000 -0.001716
v 0.004417 0.075000 -0.002123
v 0.004283 0.075000 -0.002514
v 0.004087 0.075000 -0.002877
v 0.003833 0.075000 -0.003203
v 0.003529 0.075000 -0.003483
v 0.003184 0.075000 -0.003708
v 0.002806 0.075000 -0.003874
v 0.002405 0.075000 -0.003976
v 0.001994 0.075000 -0.004010
v 0.000005 -0.075000 0.009005
v -0.000136 -0.075000 0.009004
v 0.001182 -0.075000 0.000855
v -0.001681 -0.075000 0.008846
v 0.000804 -0.075000 0.000689
v -0.003176 -0.075000 0.008424
v 0.000458 -0.075000 0.000463
v 0.000146 -0.075000 0.009004
v 0.001582 -0.075000 0.000956
v 0.001692 -0.075000 0.008846
v 0.003186 -0.075000 0.008424
v 0.004586 -0.075000 0.007752
v 0.005850 -0.075000 0.006849
v 0.006940 -0.075000 0.005742
v 0.007823 -0.075000 0.004464
v 0.008473 -0.075000 0.003054
v 0.008871 -0.075000 0.001553
v 0.009005 -0.075000 0.000005
v 0.008871 -0.075000 -0.001542
v 0.008473 -0.075000 -0.003043
v 0.007823 -0.075000 -0.004454
v 0.006940 -0.075000 -0.005732
v 0.005850 -0.075000 -0.006838
v 0.004586 -0.075000 -0.007741
v 0.001182 -0.075000 -0.003874
v 0.000005 -0.075000 -0.008995
v 0.001582 -0.075000 -0.003976
v 0.000146 -0.075000 -0.008994
v 0.001692 -0.075000 -0.008835
v 0.003186 -0.075000 -0.008414
v -0.000498 -0.075000 -0.001303
v -0.008861 -0.075000 -0.001542
v -0.000498 -0.075000 -0.001716
v -0.008463 -0.075000 -0.003043
v -0.000430 -0.075000 -0.002123
v -0.007813 -0.075000 -0.004454
v -0.000296 -0.075000 -0.002514
v -0.006929 -0.075000 -0.005732
v -0.000099 -0.075000 -0.002877
v -0.005840 -0.075000 -0.006838
v 0.000154 -0.075000 -0.003203
v -0.004576 -0.075000 -0.007741
v 0.000458 -0.075000 -0.003483
v -0.003176 -0.075000 -0.008414
v 0.000804 -0.075000 -0.003708
v -0.001681 -0.075000 -0.008835
v -0.000136 -0.075000 -0.008994
v -0.004576 -0.075000 0.007752
v -0.005840 -0.075000 0.006849
v 0.000154 -0.075000 0.000183
v -0.006929 -0.075000 0.005742
v -0.000099 -0.075000 -0.000142
v -0.007813 -0.075000 0.004464
v -0.000296 -0.075000 -0.000506
v -0.008463 -0.075000 0.003054
v -0.000430 -0.075000 -0.000896
v -0.008861 -0.075000 0.001553
v -0.008995 -0.075000 0.000005
v 0.004586 0.075000 -0.007741
v 0.007823 0.075000 -0.004454
v 0.008473 0.075000 -0.003043
v 0.008871 0.075000 -0.001542
v 0.005850 0.075000 -0.006838
v 0.006940 0.075000 -0.005732
v 0.009005 0.075000 0.000005
v 0.008871 0.075000 0.001553
v 0.008473 0.075000 0.003054
v 0.007823 0.075000 0.004464
v 0.006940 0.075000 0.005742
v 0.005850 0.075000 0.006849
v 0.004586 0.075000 0.007752
v 0.003186 0.075000 0.008424
v 0.001692 0.075000 0.008846
v 0.000146 0.075000 0.009004
v 0.001582 0.075000 0.000956
v 0.000005 0.075000 0.009005
v 0.001182 0.075000 0.000855
v -0.000136 0.075000 0.009004
v 0.000154 0.075000 0.000183
v -0.005840 0.075000 0.006849
v 0.000458 0.075000 0.000463
v -0.004576 0.075000 0.007752
v 0.000804 0.075000 0.000689
v -0.003176 0.075000 0.008424
v -0.001681 0.075000 0.008846
v -0.000498 0.075000 -0.001716
v -0.008861 0.075000 -0.001542
v -0.000498 0.075000 -0.001303
v -0.008995 0.075000 0.000005
v -0.000430 0.075000 -0.000896
v -0.008861 0.075000 0.001553
v -0.000296 0.075000 -0.000506
v -0.008463 0.075000 0.003054
v -0.000099 0.075000 -0.000142
v -0.007813 0.075000 0.004464
v -0.006929 0.075000 0.005742
v 0.001582 0.075000 -0.003976
v 0.000005 0.075000 -0.008995
v 0.001182 0.075000 -0.003874
v -0.000136 0.075000 -0.008994
v 0.000804 0.075000 -0.003708
v -0.001681 0.075000 -0.008835
v 0.000458 0.075000 -0.003483
v -0.003176 0.075000 -0.008414
v 0.000154 0.075000 -0.003203
v -0.004576 0.075000 -0.007741
v -0.000099 0.075000 -0.002877
v -0.005840 0.075000 -0.006838
v -0.000296 0.075000 -0.002514
v -0.006929 0.075000 -0.005732
v -0.000430 0.075000 -0.002123
v -0.007813 0.075000 -0.004454
v -0.008463 0.075000 -0.003043
v 0.003186 0.075000 -0.008414
v 0.001692 0.075000 -0.008835
v 0.000146 0.075000 -0.008994
v -0.001896 0.013376 0.008802
v -0.002030 0.013547 0.008772
v -0.002147 0.013727 0.008744
v -0.002244 0.013908 0.008720
v -0.002333 0.014116 0.008696
v -0.002387 0.014272 0.008682
v -0.002451 0.014531 0.008664
v -0.002473 0.014671 0.008657
v -0.000392 0.012532 0.008996
v -0.000425 0.012537 0.008995
v -0.000724 0.012609 0.008976
v -0.000842 0.012648 0.008965
v -0.001097 0.012756 0.008937
v -0.001234 0.012828 0.008920
v -0.001447 0.012965 0.008887
v -0.001589 0.013074 0.008863
v -0.001685 0.013158 0.008845
v -0.001761 0.013231 0.008830
v 0.000005 0.012500 0.009005
v -0.001589 -0.026926 -0.008853
v -0.001447 -0.027035 -0.008877
v -0.001234 -0.027172 -0.008909
v -0.001087 -0.027249 -0.008928
v -0.000842 -0.027352 -0.008955
v 0.000005 -0.027500 -0.008995
v -0.000324 -0.027478 -0.008989
v -0.000425 -0.027463 -0.008984
v -0.000723 -0.027392 -0.008965
v -0.002463 0.054604 -0.008650
v -0.002333 0.054116 -0.008686
v -0.002239 0.053898 -0.008710
v -0.002451 0.054531 -0.008653
v -0.002386 0.054271 -0.008671
v -0.002147 0.053727 -0.008734
v -0.002030 0.053549 -0.008762
v -0.001896 0.053376 -0.008792
v -0.002463 -0.025396 -0.008650
v -0.002451 -0.025469 -0.008653
v -0.002386 -0.025729 -0.008671
v -0.002333 -0.025884 -0.008686
v -0.002239 -0.026102 -0.008710
v -0.002147 -0.026273 -0.008734
v -0.002030 -0.026451 -0.008762
v -0.001896 -0.026624 -0.008792
v -0.001764 -0.026766 -0.008819
v -0.001685 -0.026842 -0.008835
v -0.001589 0.053074 -0.008853
v -0.001447 0.052965 -0.008877
v -0.001234 0.052829 -0.008909
v -0.001087 0.052751 -0.008928
v -0.000723 0.052608 -0.008965
v -0.000425 0.052537 -0.008984
v -0.000842 0.052648 -0.008955
v -0.001685 0.053158 -0.008835
v -0.001764 0.053234 -0.008819
v -0.000324 0.052522 -0.008989
v 0.000005 0.052500 -0.008995
v -0.008650 0.034600 0.002473
v -0.008653 0.034531 0.002461
v -0.008671 0.034273 0.002397
v -0.008686 0.034116 0.002344
v -0.008710 0.033902 0.002251
v -0.008734 0.033727 0.002157
v -0.008761 0.033551 0.002043
v -0.008792 0.033376 0.001906
v -0.008819 0.033237 0.001777
v -0.008853 0.033074 0.001599
v -0.008860 0.033040 0.001557
v -0.008800 0.033330 -0.001856
v -0.008792 0.033376 -0.001896
v -0.008743 0.033665 -0.002109
v -0.008734 0.033727 -0.002147
v -0.008695 0.034031 -0.002299
v -0.008686 0.034116 -0.002333
v -0.008660 0.034420 -0.002427
v -0.008653 0.034531 -0.002451
v -0.008644 0.034754 -0.002483
v -0.008985 0.032537 -0.000425
v -0.008983 0.032544 -0.000466
v -0.008955 0.032648 -0.000842
v -0.008954 0.032651 -0.000849
v -0.008912 0.032818 -0.001215
v -0.008909 0.032828 -0.001234
v -0.008859 0.033047 -0.001556
v -0.008853 0.033074 -0.001589
v -0.008955 0.032648 0.000852
v -0.008965 0.032608 0.000732
v -0.008928 0.032753 0.001102
v -0.008876 0.032967 0.001460
v -0.008909 0.032829 0.001244
v -0.008985 0.032537 0.000435
v -0.008989 0.032521 0.000335
v -0.008995 0.032500 0.000005
v -0.008995 0.032501 -0.000067
v 0.001906 -0.026624 -0.008792
v 0.002040 -0.026453 -0.008762
v 0.002344 -0.025884 -0.008686
v 0.002397 -0.025727 -0.008671
v 0.002157 -0.026273 -0.008734
v 0.002252 -0.026096 -0.008710
v 0.002461 -0.025469 -0.008653
v 0.002484 -0.025325 -0.008647
v 0.002157 0.053727 -0.008734
v 0.002252 0.053904 -0.008710
v 0.002344 0.054116 -0.008686
v 0.002397 0.054273 -0.008671
v 0.002461 0.054531 -0.008653
v 0.002484 0.054675 -0.008647
v 0.001768 0.053227 -0.008820
v 0.001906 0.053376 -0.008792
v 0.002040 0.053547 -0.008762
v 0.000405 0.052532 -0.008986
v 0.000435 0.052537 -0.008984
v 0.000731 0.052608 -0.008965
v 0.001244 0.052828 -0.008909
v 0.001455 0.052963 -0.008877
v 0.000852 0.052648 -0.008955
v 0.001104 0.052754 -0.008927
v 0.001599 0.053074 -0.008853
v 0.000405 -0.027468 -0.008986
v 0.000435 -0.027463 -0.008984
v 0.000731 -0.027392 -0.008965
v 0.000852 -0.027352 -0.008955
v 0.001104 -0.027246 -0.008927
v 0.001244 -0.027172 -0.008909
v 0.001455 -0.027037 -0.008877
v 0.001599 -0.026926 -0.008853
v 0.001695 -0.026842 -0.008835
v 0.001768 -0.026773 -0.008820
v 0.000334 0.012521 0.008999
v 0.001599 0.013074 0.008863
v 0.001460 0.012967 0.008887
v 0.001244 0.012829 0.008920
v 0.001101 0.012753 0.008938
v 0.000852 0.012648 0.008965
v 0.000731 0.012608 0.008976
v 0.000435 0.012537 0.008995
v 0.002473 0.014600 0.008660
v 0.002461 0.014531 0.008664
v 0.002397 0.014273 0.008681
v 0.002344 0.014116 0.008696
v 0.002251 0.013902 0.008720
v 0.002157 0.013727 0.008744
v 0.002043 0.013551 0.008771
v 0.001906 0.013376 0.008802
v 0.001777 0.013237 0.008829
v 0.001696 0.013158 0.008845
v 0.008660 -0.005400 -0.002463
v 0.008664 -0.005469 -0.002451
v 0.008681 -0.005727 -0.002387
v 0.008696 -0.005884 -0.002333
v 0.008720 -0.006098 -0.002241
v 0.008744 -0.006273 -0.002147
v 0.008771 -0.006449 -0.002033
v 0.008802 -0.006624 -0.001896
v 0.008829 -0.006763 -0.001767
v 0.008863 -0.006926 -0.001588
v 0.008811 -0.006670 0.001866
v 0.008802 -0.006624 0.001906
v 0.008753 -0.006335 0.002120
v 0.008744 -0.006273 0.002157
v 0.008705 -0.005969 0.002310
v 0.008696 -0.005884 0.002344
v 0.008670 -0.005580 0.002437
v 0.008664 -0.005469 0.002461
v 0.008654 -0.005246 0.002493
v 0.008995 -0.007463 0.000435
v 0.008993 -0.007456 0.000477
v 0.008965 -0.007352 0.000852
v 0.008964 -0.007349 0.000860
v 0.008922 -0.007182 0.001226
v 0.008919 -0.007172 0.001244
v 0.008869 -0.006953 0.001566
v 0.008863 -0.006926 0.001599
v 0.008870 -0.006960 -0.001547
v 0.008887 -0.007033 -0.001450
v 0.008919 -0.007171 -0.001233
v 0.008938 -0.007247 -0.001091
v 0.008965 -0.007352 -0.000842
v 0.008976 -0.007392 -0.000722
v 0.008995 -0.007463 -0.000425
v 0.008999 -0.007479 -0.000324
v 0.009005 -0.007500 0.000005
v 0.009005 -0.007499 0.000077
vn 1.0000 -0.0000 -0.0000
vn 0.0922 -0.1015 -0.9906
vn -0.0604 -0.0783 -0.9951
vn -0.0000 -0.0078 -1.0000
vn 0.1121 -0.2697 -0.9564
vn -0.0065 -0.2385 -0.9711
vn -0.0065 -0.1726 -0.9850
vn 0.0804 -0.4315 -0.8985
vn -0.0001 -0.3974 -0.9176
vn -0.0002 -0.3218 -0.9468
vn 0.0586 -0.5804 -0.8122
vn 0.0030 -0.5455 -0.8381
vn 0.0029 -0.4748 -0.8801
vn 0.0010 -0.7764 -0.6302
vn 0.0010 -0.7387 -0.6741
vn 0.0411 -0.7120 -0.7009
vn 0.0010 -0.6793 -0.7338
vn 0.0010 -0.6167 -0.7872
vn 0.0086 -0.7996 -0.6005
vn 0.0338 -0.8222 -0.5682
vn 0.0012 -0.8429 -0.5381
vn 0.0011 -0.8853 -0.4651
vn 0.0268 -0.9078 -0.4185
vn 0.0003 -0.9216 -0.3882
vn 0.0002 -0.9487 -0.3161
vn 0.0214 -0.9664 -0.2562
vn 0.0011 -0.9726 -0.2324
vn 0.0011 -0.9886 -0.1505
vn 0.0182 -0.9961 -0.0863
vn -0.0000 -0.9979 -0.0644
vn -0.0000 -0.9999 0.0146
vn 0.0135 -0.9962 0.0863
vn 0.0011 -0.9950 0.1001
vn 0.0011 -0.9836 0.1804
vn 0.0101 -0.9665 0.2563
vn 0.0002 -0.9640 0.2658
vn 0.0002 -0.9396 0.3422
vn 0.0027 -0.9081 0.4187
vn 0.0062 -0.9094 0.4159
vn 0.0133 -0.8226 0.5685
vn 0.0012 -0.8272 0.5618
vn 0.0012 -0.8712 0.4909
vn 0.0220 -0.7125 0.7014
vn 0.0010 -0.7207 0.6932
vn 0.0010 -0.7748 0.6323
vn 0.0373 -0.5810 0.8130
vn 0.0010 -0.5934 0.8049
vn 0.0010 -0.6597 0.7516
vn 0.0612 -0.4321 0.8998
vn 0.0029 -0.4481 0.8940
vn 0.0029 -0.5207 0.8537
vn 0.1155 -0.2696 0.9560
vn 0.0004 -0.2940 0.9558
vn 0.0005 -0.3706 0.9288
vn -0.0000 -0.0078 1.0000
vn -0.0345 -0.0481 0.9982
vn 0.1900 -0.1001 0.9767
vn 0.0072 -0.1427 0.9897
vn 0.0073 -0.2099 0.9777
vn -0.0000 -0.0000 1.0000
vn 0.9905 -0.1015 0.0923
vn 0.9951 -0.0782 -0.0604
vn 1.0000 -0.0079 -0.0000
vn 0.9564 -0.2697 0.1121
vn 0.9711 -0.2385 -0.0064
vn 0.9850 -0.1726 -0.0065
vn 0.8985 -0.4315 0.0803
vn 0.9176 -0.3974 -0.0002
vn 0.9468 -0.3218 -0.0003
vn 0.8122 -0.5804 0.0586
vn 0.8381 -0.5455 0.0031
vn 0.8801 -0.4748 0.0029
vn 0.6580 -0.7530 0.0010
vn 0.6900 -0.7234 0.0243
vn 0.7009 -0.7120 0.0411
vn 0.7338 -0.6793 0.0010
vn 0.7872 -0.6167 0.0010
vn 0.6100 -0.7924 0.0010
vn 0.5682 -0.8222 0.0338
vn 0.5380 -0.8429 0.0012
vn 0.4651 -0.8853 0.0011
vn 0.4185 -0.9078 0.0268
vn 0.3882 -0.9216 0.0002
vn 0.3162 -0.9487 0.0002
vn 0.2562 -0.9664 0.0215
vn 0.2323 -0.9726 0.0011
vn 0.1504 -0.9886 0.0011
vn 0.0863 -0.9961 0.0183
vn 0.0643 -0.9979 -0.0000
vn -0.0793 -0.9969 -0.0000
vn -0.0863 -0.9962 0.0072
vn -0.1650 -0.9863 0.0011
vn -0.2322 -0.9727 0.0011
vn -0.2562 -0.9664 0.0215
vn -0.3160 -0.9488 0.0002
vn -0.3898 -0.9209 0.0002
vn -0.4185 -0.9078 0.0260
vn -0.4682 -0.8836 -0.0005
vn -0.7015 -0.7126 0.0010
vn -0.7234 -0.6862 0.0757
vn -0.6883 -0.7251 0.0227
vn -0.6566 -0.7542 -0.0004
vn -0.5686 -0.8226 -0.0004
vn -0.5995 -0.7976 0.0661
vn -0.5383 -0.8428 -0.0005
vn -0.9015 -0.4329 0.0006
vn -0.9053 -0.4051 0.1274
vn -0.8809 -0.4733 0.0029
vn -0.8136 -0.5814 0.0030
vn -0.8271 -0.5535 0.0978
vn -0.7869 -0.6170 0.0010
vn -1.0000 -0.0079 -0.0000
vn -0.9969 -0.0634 -0.0476
vn -0.9813 -0.1005 0.1641
vn -0.9873 -0.1586 0.0072
vn -0.9624 -0.2714 0.0074
vn -0.9552 -0.2476 0.1623
vn -0.9462 -0.3237 0.0004
vn -1.0000 -0.0000 -0.0000
vn -0.0922 -0.1015 0.9906
vn 0.0604 -0.0783 0.9951
vn -0.1121 -0.2697 0.9564
vn 0.0065 -0.2385 0.9711
vn 0.0065 -0.1726 0.9850
vn -0.0804 -0.4315 0.8985
vn 0.0001 -0.3974 0.9176
vn 0.0003 -0.3217 0.9468
vn -0.0586 -0.5804 0.8122
vn -0.0031 -0.5455 0.8381
vn -0.0029 -0.4748 0.8801
vn -0.0010 -0.7765 0.6301
vn -0.0010 -0.7387 0.6741
vn -0.0411 -0.7120 0.7009
vn -0.0010 -0.6793 0.7338
vn -0.0010 -0.6167 0.7872
vn -0.0086 -0.7996 0.6005
vn -0.0338 -0.8222 0.5682
vn -0.0012 -0.8429 0.5381
vn -0.0011 -0.8853 0.4651
vn -0.0268 -0.9078 0.4185
vn -0.0003 -0.9216 0.3882
vn -0.0002 -0.9487 0.3162
vn -0.0215 -0.9664 0.2562
vn -0.0011 -0.9726 0.2324
vn -0.0011 -0.9886 0.1505
vn -0.0182 -0.9961 0.0863
vn -0.0000 -0.9979 0.0644
vn -0.0000 -0.9999 -0.0144
vn -0.0135 -0.9962 -0.0863
vn -0.0011 -0.9950 -0.1001
vn -0.0011 -0.9836 -0.1804
vn -0.0101 -0.9665 -0.2563
vn -0.0003 -0.9640 -0.2658
vn -0.0003 -0.9394 -0.3428
vn -0.0027 -0.9081 -0.4187
vn -0.0062 -0.9094 -0.4159
vn -0.0133 -0.8226 -0.5685
vn -0.0012 -0.8272 -0.5618
vn -0.0012 -0.8712 -0.4909
vn -0.0220 -0.7125 -0.7014
vn -0.0010 -0.7207 -0.6932
vn -0.0010 -0.7749 -0.6321
vn -0.0374 -0.5810 -0.8130
vn -0.0010 -0.5934 -0.8049
vn -0.0010 -0.6596 -0.7516
vn -0.0612 -0.4321 -0.8998
vn -0.0028 -0.4481 -0.8940
vn -0.0029 -0.5207 -0.8538
vn -0.1155 -0.2696 -0.9560
vn -0.0004 -0.2940 -0.9558
vn -0.0005 -0.3706 -0.9288
vn 0.0345 -0.0481 -0.9982
vn -0.1900 -0.1001 -0.9767
vn -0.0072 -0.1427 -0.9897
vn -0.0073 -0.2099 -0.9777
vn -0.0000 -0.0000 -1.0000
vn -1.0000 -0.0078 -0.0000
vn -0.9952 -0.0778 0.0600
vn -0.9900 -0.1014 -0.0983
vn -0.9848 -0.1736 -0.0071
vn -0.9707 -0.2404 -0.0072
vn -0.9557 -0.2695 -0.1183
vn -0.9463 -0.3233 -0.0003
vn -0.9179 -0.3968 -0.0005
vn -0.8986 -0.4315 -0.0801
vn -0.8801 -0.4747 0.0015
vn -0.8388 -0.5444 0.0014
vn -0.8124 -0.5805 -0.0545
vn -0.7893 -0.6140 0.0004
vn -0.7355 -0.6775 0.0004
vn -0.7009 -0.7120 -0.0410
vn -0.6905 -0.7229 -0.0248
vn -0.4659 -0.8848 -0.0011
vn -0.5389 -0.8424 -0.0011
vn -0.5682 -0.8222 -0.0336
vn -0.6108 -0.7918 -0.0010
vn -0.6580 -0.7530 -0.0010
vn -0.3848 -0.9219 -0.0441
vn -0.4187 -0.9081 -0.0003
vn -0.3162 -0.9487 -0.0003
vn -0.2562 -0.9664 -0.0214
vn -0.2325 -0.9726 -0.0011
vn -0.1505 -0.9886 -0.0011
vn -0.0863 -0.9961 -0.0182
vn -0.0644 -0.9979 -0.0000
vn 0.0792 -0.9969 -0.0000
vn 0.0863 -0.9962 -0.0073
vn 0.1655 -0.9862 -0.0011
vn 0.2324 -0.9726 -0.0011
vn 0.2562 -0.9664 -0.0214
vn 0.3160 -0.9487 -0.0003
vn 0.3897 -0.9209 -0.0003
vn 0.4185 -0.9078 -0.0264
vn 0.4665 -0.8845 -0.0011
vn 0.7015 -0.7126 0.0004
vn 0.7241 -0.6854 -0.0767
vn 0.6888 -0.7246 -0.0234
vn 0.6580 -0.7530 -0.0010
vn 0.5685 -0.8227 -0.0009
vn 0.6008 -0.7962 -0.0705
vn 0.5379 -0.8430 -0.0011
vn 0.9014 -0.4329 -0.0006
vn 0.9054 -0.4055 -0.1258
vn 0.8802 -0.4746 0.0016
vn 0.8136 -0.5814 0.0015
vn 0.8274 -0.5539 -0.0927
vn 0.7882 -0.6154 0.0004
vn 0.9968 -0.0639 0.0481
vn 0.9816 -0.1006 -0.1624
vn 0.9872 -0.1591 -0.0071
vn 0.9624 -0.2714 -0.0074
vn 0.9550 -0.2473 -0.1641
vn 0.9463 -0.3233 -0.0004
vn -0.9463 -0.3234 -0.0004
vn -0.8802 -0.4747 0.0015
vn -0.7355 -0.6776 0.0003
vn -0.5389 -0.8424 -0.0012
vn -0.3847 -0.9220 -0.0441
vn -0.3163 -0.9486 -0.0002
vn -0.2326 -0.9726 -0.0011
vn -0.0645 -0.9979 -0.0000
vn 0.1654 -0.9862 -0.0011
vn 0.3162 -0.9487 -0.0002
vn 0.3897 -0.9210 -0.0003
vn 0.7241 -0.6854 -0.0768
vn 0.6728 -0.7398 -0.0010
vn 0.5686 -0.8226 -0.0010
vn 0.6008 -0.7962 -0.0706
vn 0.5379 -0.8430 -0.0012
vn 0.9015 -0.4329 -0.0006
vn 0.7882 -0.6155 0.0004
vn 0.9968 -0.0639 0.0480
vn -0.0000 -1.0000 -0.0000
vn -0.0001 -1.0000 -0.0000
vn -0.0826 -0.0000 0.9966
vn -0.2455 -0.0000 0.9694
vn -0.4017 -0.0000 0.9158
vn -0.5470 -0.0000 0.8372
vn -0.5469 -0.0000 0.8372
vn -0.6773 -0.0000 0.7357
vn -0.7891 -0.0000 0.6142
vn -0.8795 -0.0000 0.4759
vn -0.8795 -0.0000 0.4760
vn -0.9458 -0.0000 0.3247
vn -0.9864 -0.0000 0.1646
vn -0.9864 -0.0000 -0.1646
vn -0.9458 -0.0000 -0.3247
vn -0.8795 -0.0000 -0.4759
vn -0.8795 -0.0000 -0.4760
vn -0.7891 -0.0000 -0.6142
vn -0.6773 -0.0000 -0.7357
vn -0.5470 -0.0000 -0.8372
vn -0.5469 -0.0000 -0.8372
vn -0.4017 -0.0000 -0.9158
vn -0.2455 -0.0000 -0.9694
vn -0.0826 -0.0000 -0.9966
vn -0.0000 1.0000 -0.0000
vn 0.0001 1.0000 -0.0000
vn -0.0001 1.0000 -0.0000
vn -0.0079 -0.0000 1.0000
vn -0.1019 -0.0000 0.9948
vn -0.1844 0.0022 0.9829
vn -0.1705 0.0019 0.9853
vn -0.1503 0.0014 0.9886
vn -0.1300 0.0010 0.9915
vn -0.1080 0.0007 0.9941
vn -0.0876 0.0004 0.9962
vn -0.0643 0.0002 0.9979
vn -0.0420 0.0001 0.9991
vn -0.0181 -0.0000 0.9998
vn -0.2199 -0.0010 0.9755
vn -0.2338 -0.0008 0.9723
vn -0.2456 -0.0006 0.9694
vn -0.2560 -0.0005 0.9667
vn -0.2640 -0.0004 0.9645
vn -0.2707 -0.0004 0.9627
vn -0.2760 -0.0003 0.9611
vn -0.2807 -0.0003 0.9598
vn -0.2714 0.0006 0.9625
vn -0.2811 0.0004 0.9597
vn -0.2769 0.0006 0.9609
vn -0.2641 0.0005 0.9645
vn -0.2553 0.0004 0.9669
vn -0.2446 0.0003 0.9696
vn -0.2329 0.0002 0.9725
vn -0.2188 0.0001 0.9758
vn -0.2040 -0.0000 0.9790
vn -0.1922 -0.0000 0.9814
vn -0.0461 -0.0010 0.9989
vn -0.0646 -0.0008 0.9979
vn -0.0877 -0.0005 0.9961
vn -0.1084 -0.0003 0.9941
vn -0.1302 -0.0002 0.9915
vn -0.1495 -0.0001 0.9888
vn -0.1692 -0.0000 0.9856
vn -0.1825 -0.0000 0.9832
vn -0.2714 -0.0000 0.9625
vn -0.1933 -0.0014 0.9811
vn -0.2050 -0.0012 0.9788
vn -0.1019 -0.0002 0.9948
vn -0.0079 0.0001 1.0000
vn -0.0220 -0.0000 0.9998
vn -0.1693 -0.0000 -0.9856
vn -0.1496 -0.0001 -0.9887
vn -0.1296 -0.0003 -0.9916
vn -0.1080 -0.0006 -0.9942
vn -0.0183 -0.0000 -0.9998
vn -0.0079 0.0001 -1.0000
vn -0.0422 -0.0001 -0.9991
vn -0.1019 -0.0004 -0.9948
vn -0.0647 -0.0014 -0.9979
vn -0.0878 -0.0010 -0.9961
vn -0.2240 0.0044 -0.9746
vn -0.2376 0.0035 -0.9714
vn -0.2493 0.0028 -0.9684
vn -0.2597 0.0023 -0.9657
vn -0.2680 0.0019 -0.9634
vn -0.2752 0.0016 -0.9614
vn -0.2816 0.0013 -0.9595
vn -0.2903 0.0010 -0.9569
vn -0.2326 0.0001 -0.9726
vn -0.2445 0.0001 -0.9697
vn -0.2548 -0.0000 -0.9670
vn -0.2551 -0.0002 -0.9669
vn -0.2188 0.0002 -0.9758
vn -0.2748 -0.0002 -0.9615
vn -0.2039 0.0003 -0.9790
vn -0.2706 -0.0003 -0.9627
vn -0.2636 -0.0003 -0.9646
vn -0.2445 -0.0001 -0.9697
vn -0.2328 -0.0001 -0.9725
vn -0.2187 -0.0000 -0.9758
vn -0.2629 -0.0000 -0.9648
vn -0.2694 -0.0000 -0.9630
vn -0.2741 -0.0000 -0.9617
vn -0.2804 0.0003 -0.9599
vn -0.3162 -0.0000 -0.9487
vn -0.2760 -0.0000 -0.9612
vn -0.2714 -0.0007 -0.9625
vn -0.2776 -0.0008 -0.9607
vn -0.2719 -0.0007 -0.9623
vn -0.2643 -0.0006 -0.9644
vn -0.2556 -0.0004 -0.9668
vn -0.2448 -0.0003 -0.9696
vn -0.2329 -0.0002 -0.9725
vn -0.2188 -0.0001 -0.9758
vn -0.2039 -0.0000 -0.9790
vn -0.1922 -0.0000 -0.9814
vn -0.1825 -0.0000 -0.9832
vn -0.1696 -0.0005 -0.9855
vn -0.1497 -0.0003 -0.9887
vn -0.1295 -0.0001 -0.9916
vn -0.0643 -0.0000 -0.9979
vn -0.1077 -0.0000 -0.9942
vn -0.0875 -0.0000 -0.9962
vn -0.0461 0.0001 -0.9989
vn -0.1495 0.0001 -0.9888
vn -0.1300 0.0002 -0.9915
vn -0.1830 -0.0006 -0.9831
vn -0.0877 0.0006 -0.9961
vn -0.1083 0.0004 -0.9941
vn -0.1865 -0.0000 -0.9825
vn -0.1691 -0.0000 -0.9856
vn -0.0422 -0.0000 -0.9991
vn -0.0222 -0.0000 -0.9998
vn -0.0469 0.0051 -0.9989
vn -0.0652 0.0038 -0.9979
vn -0.0883 0.0025 -0.9961
vn -0.1088 0.0016 -0.9941
vn -0.1303 0.0008 -0.9915
vn -0.1496 0.0003 -0.9887
vn -0.1692 0.0001 -0.9856
vn -0.2714 -0.0000 -0.9625
vn -0.1978 0.0065 -0.9802
vn -0.2093 0.0055 -0.9778
vn -0.1019 0.0011 -0.9948
vn -0.0079 -0.0003 -1.0000
vn -0.9774 0.0021 0.2113
vn -0.9743 0.0016 0.2253
vn -0.9710 0.0013 0.2391
vn -0.9684 0.0010 0.2495
vn -0.9656 0.0008 0.2598
vn -0.9637 0.0006 0.2670
vn -0.9618 0.0005 0.2739
vn -0.9607 0.0005 0.2777
vn -0.9588 0.0004 0.2841
vn -0.9666 -0.0003 0.2563
vn -0.9611 -0.0005 0.2760
vn -0.9626 -0.0004 0.2709
vn -0.9646 -0.0004 0.2638
vn -0.9668 -0.0003 0.2554
vn -0.9696 -0.0002 0.2448
vn -0.9725 -0.0002 0.2330
vn -0.9757 -0.0001 0.2190
vn -0.9789 -0.0000 0.2041
vn -0.9824 -0.0000 0.1870
vn -0.9846 -0.0000 0.1748
vn -0.9987 0.0018 0.0505
vn -0.9973 0.0011 0.0737
vn -0.9955 0.0007 0.0951
vn -0.9933 0.0003 0.1157
vn -0.9906 0.0002 0.1368
vn -0.9878 -0.0000 0.1556
vn -0.9666 -0.0000 0.2563
vn -0.9840 0.0033 0.1779
vn -0.9809 0.0026 0.1944
vn -0.9888 -0.0000 -0.1495
vn -0.9916 0.0002 -0.1296
vn -0.9942 0.0005 -0.1079
vn -0.9961 0.0009 -0.0878
vn -0.9979 0.0014 -0.0646
vn -0.9991 0.0020 -0.0423
vn -0.9963 0.0006 -0.0863
vn -0.9998 -0.0000 -0.0182
vn -0.9963 -0.0000 0.0863
vn -1.0000 0.0034 0.0042
vn -0.9996 0.0025 0.0283
vn -0.9777 -0.0007 -0.2098
vn -0.9746 -0.0006 -0.2239
vn -0.9713 -0.0005 -0.2377
vn -0.9687 -0.0004 -0.2483
vn -0.9660 -0.0003 -0.2587
vn -0.9640 -0.0002 -0.2658
vn -0.9622 -0.0002 -0.2725
vn -0.9612 -0.0002 -0.2758
vn -0.9600 -0.0002 -0.2800
vn -0.9598 0.0004 -0.2808
vn -0.9666 0.0008 -0.2563
vn -0.9597 0.0014 -0.2810
vn -0.9617 0.0012 -0.2740
vn -0.9641 0.0011 -0.2657
vn -0.9666 0.0009 -0.2564
vn -0.9694 0.0006 -0.2453
vn -0.9724 0.0005 -0.2333
vn -0.9757 0.0003 -0.2190
vn -0.9790 0.0001 -0.2040
vn -0.9824 -0.0000 -0.1869
vn -0.9846 -0.0000 -0.1748
vn -0.9860 -0.0000 -0.1668
vn -0.9987 -0.0006 -0.0502
vn -0.9973 -0.0004 -0.0734
vn -0.9955 -0.0003 -0.0947
vn -0.9933 -0.0001 -0.1154
vn -0.9906 -0.0001 -0.1366
vn -0.9878 -0.0000 -0.1556
vn -0.9666 -0.0000 -0.2563
vn -0.9843 -0.0012 -0.1762
vn -0.9812 -0.0009 -0.1928
vn -0.9962 -0.0003 0.0875
vn -0.9941 -0.0002 0.1080
vn -0.9859 -0.0000 0.1671
vn -0.9887 -0.0000 0.1497
vn -0.9915 -0.0001 0.1298
vn -0.9979 -0.0005 0.0644
vn -0.9991 -0.0007 0.0423
vn -0.9963 -0.0002 0.0863
vn -0.9998 -0.0000 0.0183
vn -0.9963 -0.0000 -0.0863
vn -1.0000 -0.0012 -0.0040
vn -0.9996 -0.0009 -0.0280
vn -0.9513 -0.0000 -0.3084
vn -0.9081 -0.0000 -0.4187
vn -0.8226 -0.0000 -0.5686
vn -0.7126 -0.0000 -0.7015
vn -0.5814 -0.0000 -0.8136
vn -0.4329 -0.0000 -0.9015
vn -0.3159 -0.0000 -0.9488
vn -0.2819 -0.0005 -0.9594
vn -0.3159 -0.0000 0.9488
vn -0.4329 -0.0000 0.9015
vn -0.5814 -0.0000 0.8136
vn -0.7126 -0.0000 0.7015
vn -0.8226 -0.0000 0.5686
vn -0.9081 -0.0000 0.4187
vn -0.9513 -0.0000 0.3084
vn -0.9606 -0.0002 0.2779
vn 0.1694 0.0001 -0.9855
vn 0.1499 0.0003 -0.9887
vn 0.1302 0.0008 -0.9915
vn 0.1086 0.0016 -0.9941
vn 0.0182 -0.0000 -0.9998
vn 0.0079 -0.0002 -1.0000
vn 0.0421 0.0002 -0.9991
vn 0.1019 0.0012 -0.9948
vn 0.0653 0.0038 -0.9979
vn 0.0883 0.0025 -0.9961
vn 0.2208 -0.0018 -0.9753
vn 0.2650 -0.0008 -0.9643
vn 0.2347 -0.0014 -0.9721
vn 0.2464 -0.0012 -0.9692
vn 0.2568 -0.0009 -0.9665
vn 0.2719 -0.0007 -0.9623
vn 0.2775 -0.0006 -0.9607
vn 0.2836 -0.0005 -0.9589
vn 0.2445 -0.0001 -0.9696
vn 0.2548 -0.0000 -0.9670
vn 0.2629 -0.0000 -0.9648
vn 0.2694 -0.0000 -0.9630
vn 0.2742 -0.0000 -0.9617
vn 0.2756 0.0004 -0.9613
vn 0.2039 -0.0003 -0.9790
vn 0.2793 0.0003 -0.9602
vn 0.2189 -0.0002 -0.9757
vn 0.2328 -0.0001 -0.9725
vn 0.2706 0.0003 -0.9627
vn 0.2636 0.0003 -0.9646
vn 0.2552 0.0002 -0.9669
vn 0.2446 0.0001 -0.9696
vn 0.2329 0.0001 -0.9725
vn 0.2189 -0.0000 -0.9757
vn 0.2857 0.0023 -0.9583
vn 0.2714 0.0017 -0.9625
vn 0.2881 0.0010 -0.9576
vn 0.2766 0.0019 -0.9610
vn 0.2671 0.0016 -0.9637
vn 0.2574 0.0012 -0.9663
vn 0.2458 0.0008 -0.9693
vn 0.2336 0.0005 -0.9723
vn 0.2192 0.0002 -0.9757
vn 0.2041 0.0001 -0.9789
vn 0.1924 -0.0000 -0.9813
vn 0.1825 -0.0000 -0.9832
vn 0.1835 0.0012 -0.9830
vn 0.0463 -0.0012 -0.9989
vn 0.0645 -0.0009 -0.9979
vn 0.1494 -0.0001 -0.9888
vn 0.0876 -0.0006 -0.9962
vn 0.1083 -0.0004 -0.9941
vn 0.1300 -0.0002 -0.9915
vn 0.2041 -0.0000 -0.9790
vn 0.1865 -0.0000 -0.9825
vn 0.1691 -0.0000 -0.9856
vn 0.1701 0.0009 -0.9854
vn 0.1501 0.0007 -0.9887
vn 0.1300 0.0004 -0.9915
vn 0.1081 0.0002 -0.9941
vn 0.0875 0.0001 -0.9962
vn 0.0644 -0.0000 -0.9979
vn 0.0420 -0.0000 -0.9991
vn 0.0222 -0.0000 -0.9998
vn 0.0464 -0.0019 -0.9989
vn 0.0646 -0.0014 -0.9979
vn 0.0877 -0.0010 -0.9961
vn 0.1083 -0.0006 -0.9941
vn 0.1300 -0.0003 -0.9915
vn 0.1495 -0.0001 -0.9888
vn 0.2714 -0.0000 -0.9625
vn 0.1942 -0.0026 -0.9810
vn 0.2058 -0.0022 -0.9786
vn 0.1019 -0.0004 -0.9948
vn 0.0079 0.0001 -1.0000
vn 0.0079 -0.0000 1.0000
vn 0.0183 -0.0000 0.9998
vn 0.1694 -0.0000 0.9856
vn 0.1497 -0.0001 0.9887
vn 0.1298 -0.0002 0.9915
vn 0.1081 -0.0003 0.9941
vn 0.0876 -0.0005 0.9962
vn 0.1019 -0.0004 0.9948
vn 0.0643 -0.0001 0.9979
vn 0.0421 -0.0000 0.9991
vn 0.2205 0.0015 0.9754
vn 0.2646 0.0007 0.9644
vn 0.2343 0.0012 0.9722
vn 0.2461 0.0010 0.9693
vn 0.2565 0.0008 0.9666
vn 0.2715 0.0006 0.9624
vn 0.2770 0.0005 0.9609
vn 0.2826 0.0004 0.9592
vn 0.2714 -0.0004 0.9625
vn 0.2756 -0.0004 0.9613
vn 0.2708 -0.0004 0.9626
vn 0.2637 -0.0003 0.9646
vn 0.2552 -0.0002 0.9669
vn 0.2447 -0.0002 0.9696
vn 0.2330 -0.0001 0.9725
vn 0.2189 -0.0000 0.9757
vn 0.2041 -0.0000 0.9790
vn 0.1924 -0.0000 0.9813
vn 0.1825 -0.0000 0.9832
vn 0.0464 0.0016 0.9989
vn 0.0645 0.0012 0.9979
vn 0.0877 0.0008 0.9961
vn 0.1082 0.0005 0.9941
vn 0.1299 0.0003 0.9915
vn 0.1493 0.0001 0.9888
vn 0.1690 -0.0000 0.9856
vn 0.1824 -0.0000 0.9832
vn 0.2714 -0.0000 0.9625
vn 0.1938 0.0021 0.9810
vn 0.2055 0.0018 0.9787
vn 0.1019 0.0003 0.9948
vn 0.0079 -0.0001 1.0000
vn 0.0222 -0.0000 0.9998
vn 0.9777 0.0010 -0.2102
vn 0.9745 0.0008 -0.2242
vn 0.9712 0.0006 -0.2381
vn 0.9686 0.0005 -0.2486
vn 0.9659 0.0004 -0.2589
vn 0.9640 0.0003 -0.2661
vn 0.9621 0.0003 -0.2728
vn 0.9611 0.0002 -0.2763
vn 0.9597 0.0002 -0.2809
vn 0.9666 -0.0005 -0.2563
vn 0.9606 -0.0008 -0.2778
vn 0.9623 -0.0007 -0.2719
vn 0.9644 -0.0006 -0.2643
vn 0.9667 -0.0005 -0.2558
vn 0.9695 -0.0004 -0.2450
vn 0.9724 -0.0003 -0.2332
vn 0.9757 -0.0001 -0.2191
vn 0.9789 -0.0001 -0.2041
vn 0.9824 -0.0000 -0.1870
vn 0.9987 0.0009 -0.0504
vn 0.9973 0.0005 -0.0735
vn 0.9955 0.0004 -0.0946
vn 0.9933 0.0002 -0.1156
vn 0.9906 0.0001 -0.1367
vn 0.9878 -0.0000 -0.1556
vn 0.9666 -0.0000 -0.2563
vn 0.9843 0.0016 -0.1765
vn 0.9812 0.0013 -0.1932
vn 0.9916 0.0001 0.1296
vn 0.9942 0.0002 0.1078
vn 0.9962 0.0004 0.0876
vn 0.9979 0.0007 0.0645
vn 0.9991 0.0010 0.0422
vn 0.9963 0.0003 0.0863
vn 0.9998 -0.0000 0.0181
vn 0.9963 -0.0000 -0.0863
vn 1.0000 0.0016 -0.0042
vn 0.9996 0.0012 -0.0282
vn 0.9776 -0.0012 0.2103
vn 0.9745 -0.0009 0.2243
vn 0.9712 -0.0007 0.2381
vn 0.9686 -0.0006 0.2487
vn 0.9659 -0.0005 0.2590
vn 0.9639 -0.0004 0.2662
vn 0.9621 -0.0003 0.2728
vn 0.9610 -0.0003 0.2765
vn 0.9595 -0.0002 0.2816
vn 0.9666 0.0004 0.2563
vn 0.9604 0.0002 0.2786
vn 0.9609 0.0007 0.2769
vn 0.9624 0.0006 0.2715
vn 0.9645 0.0005 0.2642
vn 0.9668 0.0004 0.2554
vn 0.9696 0.0003 0.2447
vn 0.9725 0.0002 0.2330
vn 0.9846 -0.0000 0.1748
vn 0.9860 -0.0000 0.1668
vn 0.9888 -0.0000 0.1495
vn 0.9758 0.0001 0.2189
vn 0.9790 0.0001 0.2040
vn 0.9824 -0.0000 0.1869
vn 0.9987 -0.0010 0.0502
vn 0.9973 -0.0006 0.0734
vn 0.9955 -0.0004 0.0947
vn 0.9933 -0.0002 0.1154
vn 0.9906 -0.0001 0.1368
vn 0.9878 -0.0000 0.1556
vn 0.9666 -0.0000 0.2563
vn 0.9842 -0.0019 0.1768
vn 0.9811 -0.0015 0.1933
vn 0.9846 -0.0000 -0.1748
vn 0.9859 -0.0000 -0.1671
vn 0.9887 -0.0000 -0.1497
vn 0.9915 -0.0001 -0.1298
vn 0.9941 -0.0003 -0.1081
vn 0.9962 -0.0005 -0.0876
vn 0.9979 -0.0008 -0.0645
vn 0.9991 -0.0011 -0.0424
vn 0.9963 -0.0003 -0.0863
vn 0.9998 -0.0000 -0.0183
vn 0.9963 -0.0000 0.0863
vn 1.0000 -0.0019 0.0040
vn 0.9996 -0.0014 0.0280
vn 0.9513 -0.0000 0.3084
vn 0.9081 -0.0000 0.4187
vn 0.8226 -0.0000 0.5686
vn 0.7126 -0.0000 0.7015
vn 0.5814 -0.0000 0.8136
vn 0.4329 -0.0000 0.9015
vn 0.3159 -0.0000 0.9488
vn 0.2796 -0.0003 0.9601
vn 0.2766 -0.0000 -0.9610
vn 0.3159 -0.0000 -0.9488
vn 0.4329 -0.0000 -0.9015
vn 0.5814 -0.0000 -0.8136
vn 0.7126 -0.0000 -0.7015
vn 0.8226 -0.0000 -0.5686
vn 0.9081 -0.0000 -0.4187
vn 0.9513 -0.0000 -0.3084
vn 0.9603 -0.0003 -0.2789
vn 0.0826 -0.0000 0.9966
vn 0.2455 -0.0000 0.9694
vn 0.4017 -0.0000 0.9158
vn 0.5469 -0.0000 0.8372
vn 0.6773 -0.0000 0.7357
vn 0.7891 -0.0000 0.6142
vn 0.8795 -0.0000 0.4760
vn 0.9458 -0.0000 0.3247
vn 0.9864 -0.0000 0.1646
vn 0.9864 -0.0000 -0.1646
vn 0.9458 -0.0000 -0.3247
vn 0.8795 -0.0000 -0.4760
vn 0.8795 -0.0000 -0.4759
vn 0.7891 -0.0000 -0.6142
vn 0.6773 -0.0000 -0.7357
vn 0.5469 -0.0000 -0.8372
vn 0.4017 -0.0000 -0.9158
vn 0.2455 -0.0000 -0.9694
vn 0.0826 -0.0000 -0.9966
vn 0.5470 -0.0000 -0.8372
vn 0.8795 -0.0000 0.4759
vn 0.5470 -0.0000 0.8372
vn 0.9903 0.1015 -0.0951
vn 0.9951 0.0780 0.0602
vn 1.0000 0.0079 -0.0000
vn 0.9561 0.2697 -0.1144
vn 0.9709 0.2397 -0.0001
vn 0.9849 0.1731 -0.0000
vn 0.8986 0.4315 -0.0798
vn 0.9176 0.3975 -0.0002
vn 0.9465 0.3228 -0.0000
vn 0.8123 0.5805 -0.0559
vn 0.8382 0.5454 -0.0003
vn 0.8799 0.4752 -0.0002
vn 0.6571 0.7538 -0.0001
vn 0.6896 0.7238 -0.0239
vn 0.7009 0.7120 -0.0411
vn 0.7345 0.6787 -0.0002
vn 0.7881 0.6156 -0.0002
vn 0.6095 0.7928 -0.0001
vn 0.5683 0.8222 -0.0320
vn 0.5390 0.8423 -0.0001
vn 0.4663 0.8846 -0.0001
vn 0.4185 0.9078 -0.0265
vn 0.3883 0.9215 -0.0001
vn 0.3152 0.9490 -0.0000
vn 0.2562 0.9664 -0.0208
vn 0.2320 0.9727 -0.0000
vn 0.1519 0.9884 -0.0000
vn 0.0863 0.9961 -0.0171
vn 0.0659 0.9978 -0.0000
vn -0.0792 0.9969 -0.0000
vn -0.0863 0.9962 -0.0073
vn -0.1654 0.9862 -0.0011
vn -0.2322 0.9727 -0.0011
vn -0.2562 0.9664 -0.0215
vn -0.3160 0.9488 -0.0002
vn -0.3894 0.9210 -0.0002
vn -0.4185 0.9078 -0.0264
vn -0.4663 0.8846 -0.0011
vn -0.7015 0.7126 -0.0011
vn -0.7233 0.6864 -0.0754
vn -0.6886 0.7247 -0.0233
vn -0.6580 0.7531 -0.0010
vn -0.5686 0.8226 -0.0009
vn -0.6008 0.7963 -0.0704
vn -0.5378 0.8431 -0.0012
vn -0.9015 0.4329 -0.0006
vn -0.9053 0.4050 -0.1278
vn -0.8809 0.4732 -0.0029
vn -0.8136 0.5814 -0.0031
vn -0.8271 0.5535 -0.0980
vn -0.7870 0.6170 -0.0010
vn -1.0000 0.0079 -0.0000
vn -0.9969 0.0632 0.0475
vn -0.9812 0.1005 -0.1645
vn -0.9873 0.1584 -0.0072
vn -0.9624 0.2714 -0.0074
vn -0.9550 0.2474 -0.1634
vn -0.9462 0.3235 -0.0004
vn 0.9561 0.2697 -0.1145
vn 0.8382 0.5454 -0.0002
vn 0.6895 0.7238 -0.0238
vn 0.7345 0.6786 -0.0002
vn 0.7881 0.6156 -0.0001
vn 0.4663 0.8846 -0.0000
vn 0.3882 0.9216 -0.0001
vn 0.2563 0.9664 -0.0208
vn 0.1520 0.9884 -0.0000
vn -0.1657 0.9862 -0.0011
vn -0.2562 0.9664 -0.0216
vn -0.3159 0.9488 -0.0002
vn -0.3895 0.9210 -0.0003
vn -0.7233 0.6864 -0.0753
vn -0.6727 0.7399 -0.0010
vn -0.5686 0.8226 -0.0010
vn -0.9015 0.4329 -0.0005
vn -0.8809 0.4732 -0.0028
vn -0.8136 0.5814 -0.0030
vn -0.8271 0.5534 -0.0980
vn -1.0000 0.0078 -0.0000
vn -0.9462 0.3235 -0.0003
vn -0.0000 0.0078 -1.0000
vn 0.0600 0.0778 -0.9952
vn -0.0983 0.1014 -0.9900
vn -0.0071 0.1736 -0.9848
vn -0.0072 0.2405 -0.9706
vn -0.1180 0.2695 -0.9557
vn -0.0004 0.3235 -0.9462
vn -0.0005 0.3964 -0.9181
vn -0.0813 0.4314 -0.8985
vn -0.0029 0.4735 -0.8808
vn -0.0030 0.5448 -0.8386
vn -0.0588 0.5804 -0.8122
vn -0.0010 0.6161 -0.7877
vn -0.0010 0.6787 -0.7344
vn -0.0410 0.7120 -0.7009
vn 0.0004 0.7390 -0.6737
vn 0.0006 0.8837 -0.4681
vn 0.0005 0.8418 -0.5399
vn -0.0309 0.8222 -0.5683
vn -0.0068 0.7999 -0.6001
vn 0.0004 0.7778 -0.6285
vn -0.0434 0.9218 -0.3853
vn -0.0003 0.9081 -0.4187
vn -0.0002 0.9487 -0.3161
vn -0.0215 0.9664 -0.2562
vn -0.0011 0.9726 -0.2323
vn -0.0011 0.9885 -0.1511
vn -0.0179 0.9961 -0.0862
vn -0.0000 0.9979 -0.0650
vn -0.0000 0.9999 0.0138
vn -0.0131 0.9962 0.0863
vn -0.0011 0.9950 0.0996
vn -0.0011 0.9837 0.1799
vn -0.0097 0.9666 0.2563
vn -0.0002 0.9641 0.2654
vn -0.0002 0.9398 0.3418
vn -0.0021 0.9081 0.4187
vn -0.0068 0.9098 0.4151
vn -0.0138 0.8226 0.5685
vn -0.0012 0.8274 0.5615
vn -0.0012 0.8714 0.4906
vn -0.0226 0.7125 0.7013
vn -0.0010 0.7210 0.6930
vn -0.0010 0.7751 0.6318
vn -0.0382 0.5810 0.8130
vn -0.0010 0.5938 0.8046
vn -0.0010 0.6600 0.7513
vn -0.0622 0.4320 0.8997
vn -0.0029 0.4485 0.8938
vn -0.0030 0.5211 0.8535
vn -0.1164 0.2696 0.9559
vn -0.0004 0.2944 0.9557
vn -0.0005 0.3710 0.9286
vn -0.0000 0.0078 1.0000
vn 0.0344 0.0479 0.9983
vn -0.1900 0.1001 0.9767
vn -0.0071 0.1425 0.9898
vn -0.0072 0.2103 0.9776
vn -0.9952 0.0778 -0.0600
vn -0.9900 0.1014 0.0983
vn -0.9848 0.1736 0.0071
vn -0.9706 0.2406 0.0073
vn -0.9557 0.2695 0.1179
vn -0.9462 0.3235 0.0004
vn -0.9181 0.3965 0.0005
vn -0.8985 0.4314 0.0813
vn -0.8807 0.4736 0.0029
vn -0.8386 0.5448 0.0030
vn -0.8122 0.5804 0.0588
vn -0.7877 0.6161 0.0010
vn -0.7343 0.6788 0.0010
vn -0.7009 0.7120 0.0410
vn -0.6900 0.7234 0.0240
vn -0.4680 0.8837 -0.0006
vn -0.5398 0.8418 -0.0005
vn -0.5683 0.8222 0.0309
vn -0.6094 0.7928 -0.0004
vn -0.6566 0.7542 -0.0004
vn -0.3852 0.9218 0.0435
vn -0.4187 0.9081 0.0003
vn -0.3160 0.9488 0.0002
vn -0.2562 0.9664 0.0215
vn -0.2322 0.9727 0.0011
vn -0.1509 0.9885 0.0011
vn -0.0863 0.9961 0.0180
vn -0.0648 0.9979 -0.0000
vn 0.0795 0.9968 -0.0000
vn 0.0863 0.9962 0.0069
vn 0.1658 0.9862 -0.0000
vn 0.2321 0.9727 -0.0000
vn 0.2562 0.9664 0.0207
vn 0.3154 0.9490 -0.0000
vn 0.3904 0.9207 0.0001
vn 0.4185 0.9078 0.0259
vn 0.4684 0.8835 0.0001
vn 0.7015 0.7126 0.0002
vn 0.7242 0.6852 0.0777
vn 0.6890 0.7243 0.0234
vn 0.6571 0.7538 0.0002
vn 0.5686 0.8226 0.0001
vn 0.6006 0.7966 0.0689
vn 0.5388 0.8424 0.0001
vn 0.9015 0.4329 0.0002
vn 0.9053 0.4045 0.1296
vn 0.8809 0.4733 0.0001
vn 0.8136 0.5814 0.0003
vn 0.8273 0.5535 0.0955
vn 0.7879 0.6157 0.0002
vn 0.9967 0.0649 -0.0489
vn 0.9826 0.1007 0.1560
vn 0.9872 0.1597 -0.0000
vn 0.9625 0.2714 0.0002
vn 0.9556 0.2469 0.1609
vn 0.9465 0.3227 -0.0000
vn -0.0600 0.0778 0.9952
vn 0.0983 0.1014 0.9900
vn 0.0071 0.1736 0.9848
vn 0.0073 0.2405 0.9706
vn 0.1180 0.2695 0.9557
vn 0.0004 0.3235 0.9462
vn 0.0005 0.3964 0.9181
vn 0.0813 0.4314 0.8985
vn 0.0029 0.4735 0.8808
vn 0.0030 0.5448 0.8386
vn 0.0588 0.5804 0.8122
vn 0.0010 0.6161 0.7877
vn 0.0010 0.6788 0.7344
vn 0.0410 0.7120 0.7009
vn -0.0004 0.7390 0.6737
vn -0.0006 0.8837 0.4681
vn -0.0005 0.8418 0.5399
vn 0.0309 0.8222 0.5683
vn 0.0069 0.7999 0.6001
vn -0.0004 0.7778 0.6285
vn 0.0434 0.9218 0.3853
vn 0.0003 0.9081 0.4187
vn 0.0002 0.9487 0.3162
vn 0.0215 0.9664 0.2562
vn 0.0011 0.9726 0.2323
vn 0.0011 0.9885 0.1511
vn 0.0179 0.9961 0.0863
vn -0.0000 0.9979 0.0650
vn -0.0000 0.9999 -0.0138
vn 0.0131 0.9962 -0.0863
vn 0.0011 0.9950 -0.0996
vn 0.0011 0.9837 -0.1799
vn 0.0097 0.9666 -0.2563
vn 0.0002 0.9641 -0.2654
vn 0.0002 0.9398 -0.3418
vn 0.0021 0.9081 -0.4187
vn 0.0068 0.9098 -0.4151
vn 0.0138 0.8226 -0.5685
vn 0.0012 0.8274 -0.5615
vn 0.0012 0.8715 -0.4904
vn 0.0226 0.7125 -0.7013
vn 0.0010 0.7210 -0.6930
vn 0.0010 0.7751 -0.6318
vn 0.0383 0.5810 -0.8130
vn 0.0010 0.5938 -0.8046
vn 0.0010 0.6600 -0.7512
vn 0.0622 0.4320 -0.8997
vn 0.0030 0.4485 -0.8938
vn 0.0030 0.5211 -0.8535
vn 0.1164 0.2696 -0.9559
vn 0.0004 0.2944 -0.9557
vn 0.0005 0.3710 -0.9286
vn -0.0344 0.0479 -0.9983
vn 0.1900 0.1001 -0.9767
vn 0.0071 0.1425 -0.9898
vn 0.0072 0.2103 -0.9776
s 0
f 1//1 2//1 3//1
f 4//1 5//1 2//1
f 2//1 5//1 6//1
f 2//1 6//1 3//1
f 7//1 8//1 3//1
f 9//1 10//1 4//1
f 11//1 12//1 13//1
f 13//1 12//1 14//1
f 13//1 14//1 15//1
f 15//1 14//1 16//1
f 8//1 17//1 3//1
f 3//1 17//1 18//1
f 3//1 18//1 19//1
f 20//1 21//1 3//1
f 3//1 21//1 22//1
f 3//1 22//1 1//1
f 10//1 23//1 4//1
f 4//1 23//1 24//1
f 4//1 24//1 25//1
f 26//1 27//1 4//1
f 4//1 27//1 28//1
f 4//1 28//1 5//1
f 11//1 13//1 3//1
f 3//1 13//1 29//1
f 3//1 29//1 7//1
f 19//1 30//1 3//1
f 3//1 30//1 31//1
f 3//1 31//1 20//1
f 32//1 33//1 34//1
f 34//1 33//1 35//1
f 34//1 35//1 36//1
f 36//1 35//1 37//1
f 37//1 35//1 4//1
f 4//1 35//1 38//1
f 4//1 38//1 9//1
f 25//1 39//1 4//1
f 4//1 39//1 40//1
f 4//1 40//1 26//1
f 22//2 41//2 1//2
f 1//3 41//3 42//3
f 1//4 42//4 2//4
f 21//5 43//5 22//5
f 22//6 43//6 44//6
f 22//7 44//7 41//7
f 20//8 45//8 21//8
f 21//9 45//9 46//9
f 21//10 46//10 43//10
f 31//11 47//11 20//11
f 20//12 47//12 48//12
f 20//13 48//13 45//13
f 49//14 50//14 30//14
f 30//15 50//15 51//15
f 30//16 51//16 31//16
f 31//17 51//17 52//17
f 31//18 52//18 47//18
f 49//19 30//19 53//19
f 53//20 30//20 19//20
f 53//21 19//21 54//21
f 54//22 19//22 55//22
f 55//23 19//23 18//23
f 55//24 18//24 56//24
f 56//25 18//25 57//25
f 57//26 18//26 17//26
f 57//27 17//27 58//27
f 58//28 17//28 59//28
f 59//29 17//29 8//29
f 59//30 8//30 60//30
f 60//31 8//31 61//31
f 61//32 8//32 7//32
f 61//33 7//33 62//33
f 62//34 7//34 63//34
f 63//35 7//35 29//35
f 63//36 29//36 64//36
f 64//37 29//37 65//37
f 65//38 29//38 13//38
f 65//39 13//39 66//39
f 15//40 67//40 13//40
f 13//41 67//41 68//41
f 13//42 68//42 66//42
f 16//43 69//43 15//43
f 15//44 69//44 70//44
f 15//45 70//45 67//45
f 14//46 71//46 16//46
f 16//47 71//47 72//47
f 16//48 72//48 69//48
f 12//49 73//49 14//49
f 14//50 73//50 74//50
f 14//51 74//51 71//51
f 11//52 75//52 12//52
f 12//53 75//53 76//53
f 12//54 76//54 73//54
f 6//55 77//55 3//55
f 3//56 77//56 78//56
f 3//57 78//57 11//57
f 11//58 78//58 79//58
f 11//59 79//59 75//59
f 80//60 81//60 82//60
f 83//60 84//60 81//60
f 81//60 84//60 85//60
f 81//60 85//60 82//60
f 86//60 87//60 82//60
f 88//60 89//60 83//60
f 90//60 91//60 92//60
f 92//60 91//60 93//60
f 92//60 93//60 94//60
f 94//60 93//60 95//60
f 87//60 96//60 82//60
f 82//60 96//60 97//60
f 82//60 97//60 98//60
f 99//60 100//60 82//60
f 82//60 100//60 101//60
f 82//60 101//60 80//60
f 89//60 102//60 83//60
f 83//60 102//60 103//60
f 83//60 103//60 104//60
f 105//60 106//60 83//60
f 83//60 106//60 107//60
f 83//60 107//60 84//60
f 90//60 92//60 82//60
f 82//60 92//60 108//60
f 82//60 108//60 86//60
f 98//60 109//60 82//60
f 82//60 109//60 110//60
f 82//60 110//60 99//60
f 111//60 112//60 113//60
f 113//60 112//60 114//60
f 113//60 114//60 115//60
f 115//60 114//60 116//60
f 116//60 114//60 83//60
f 83//60 114//60 117//60
f 83//60 117//60 88//60
f 104//60 118//60 83//60
f 83//60 118//60 119//60
f 83//60 119//60 105//60
f 101//61 120//61 80//61
f 80//62 120//62 121//62
f 80//63 121//63 81//63
f 100//64 122//64 101//64
f 101//65 122//65 123//65
f 101//66 123//66 120//66
f 99//67 124//67 100//67
f 100//68 124//68 125//68
f 100//69 125//69 122//69
f 110//70 126//70 99//70
f 99//71 126//71 127//71
f 99//72 127//72 124//72
f 128//73 129//73 109//73
f 109//74 129//74 130//74
f 109//75 130//75 110//75
f 110//76 130//76 131//76
f 110//77 131//77 126//77
f 128//78 109//78 132//78
f 132//79 109//79 98//79
f 132//80 98//80 133//80
f 133//81 98//81 134//81
f 134//82 98//82 97//82
f 134//83 97//83 135//83
f 135//84 97//84 136//84
f 136//85 97//85 96//85
f 136//86 96//86 137//86
f 137//87 96//87 138//87
f 138//88 96//88 87//88
f 138//89 87//89 139//89
f 139//90 87//90 140//90
f 140//91 87//91 86//91
f 140//92 86//92 141//92
f 141//93 86//93 142//93
f 142//94 86//94 108//94
f 142//95 108//95 143//95
f 143//96 108//96 144//96
f 144//97 108//97 92//97
f 144//98 92//98 145//98
f 95//99 146//99 94//99
f 94//100 146//100 147//100
f 147//101 148//101 94//101
f 94//102 148//102 149//102
f 94//103 149//103 92//103
f 92//104 149//104 150//104
f 92//105 150//105 145//105
f 93//106 91//106 151//106
f 151//107 152//107 93//107
f 93//108 152//108 153//108
f 93//109 153//109 95//109
f 95//110 153//110 154//110
f 95//111 154//111 146//111
f 85//112 155//112 82//112
f 82//113 155//113 156//113
f 82//114 156//114 90//114
f 90//115 156//115 157//115
f 90//116 157//116 91//116
f 91//117 157//117 158//117
f 91//118 158//118 151//118
f 159//119 160//119 161//119
f 162//119 163//119 160//119
f 160//119 163//119 164//119
f 160//119 164//119 161//119
f 165//119 166//119 161//119
f 167//119 168//119 169//119
f 169//119 168//119 170//119
f 169//119 170//119 171//119
f 171//119 170//119 172//119
f 166//119 173//119 161//119
f 161//119 173//119 174//119
f 161//119 174//119 175//119
f 176//119 177//119 161//119
f 161//119 177//119 178//119
f 161//119 178//119 159//119
f 179//119 162//119 180//119
f 179//119 181//119 162//119
f 162//119 181//119 182//119
f 162//119 182//119 183//119
f 167//119 169//119 161//119
f 161//119 169//119 184//119
f 161//119 184//119 165//119
f 175//119 185//119 161//119
f 161//119 185//119 186//119
f 161//119 186//119 176//119
f 187//119 188//119 189//119
f 189//119 188//119 179//119
f 189//119 179//119 190//119
f 190//119 179//119 180//119
f 183//119 191//119 162//119
f 162//119 191//119 192//119
f 162//119 192//119 193//119
f 194//119 195//119 162//119
f 162//119 195//119 196//119
f 162//119 196//119 163//119
f 193//119 197//119 162//119
f 162//119 197//119 198//119
f 162//119 198//119 194//119
f 178//120 199//120 159//120
f 159//121 199//121 200//121
f 159//55 200//55 160//55
f 177//122 201//122 178//122
f 178//123 201//123 202//123
f 178//124 202//124 199//124
f 176//125 203//125 177//125
f 177//126 203//126 204//126
f 177//127 204//127 201//127
f 186//128 205//128 176//128
f 176//129 205//129 206//129
f 176//130 206//130 203//130
f 207//131 208//131 185//131
f 185//132 208//132 209//132
f 185//133 209//133 186//133
f 186//134 209//134 210//134
f 186//135 210//135 205//135
f 207//136 185//136 211//136
f 211//137 185//137 175//137
f 211//138 175//138 212//138
f 212//139 175//139 213//139
f 213//140 175//140 174//140
f 213//141 174//141 214//141
f 214//142 174//142 215//142
f 215//143 174//143 173//143
f 215//144 173//144 216//144
f 216//145 173//145 217//145
f 217//146 173//146 166//146
f 217//147 166//147 218//147
f 218//148 166//148 219//148
f 219//149 166//149 165//149
f 219//150 165//150 220//150
f 220//151 165//151 221//151
f 221//152 165//152 184//152
f 221//153 184//153 222//153
f 222//154 184//154 223//154
f 223//155 184//155 169//155
f 223//156 169//156 224//156
f 171//157 225//157 169//157
f 169//158 225//158 226//158
f 169//159 226//159 224//159
f 172//160 227//160 171//160
f 171//161 227//161 228//161
f 171//162 228//162 225//162
f 170//163 229//163 172//163
f 172//164 229//164 230//164
f 172//165 230//165 227//165
f 168//166 231//166 170//166
f 170//167 231//167 232//167
f 170//168 232//168 229//168
f 167//169 233//169 168//169
f 168//170 233//170 234//170
f 168//171 234//171 231//171
f 164//4 235//4 161//4
f 161//172 235//172 236//172
f 161//173 236//173 167//173
f 167//174 236//174 237//174
f 167//175 237//175 233//175
f 238//176 239//176 240//176
f 241//176 242//176 243//176
f 244//176 245//176 243//176
f 245//176 246//176 243//176
f 243//176 246//176 247//176
f 243//176 247//176 241//176
f 242//176 248//176 243//176
f 243//176 248//176 249//176
f 243//176 249//176 250//176
f 250//176 251//176 243//176
f 243//176 251//176 252//176
f 243//176 252//176 253//176
f 254//176 255//176 240//176
f 240//176 255//176 256//176
f 256//176 257//176 240//176
f 240//176 257//176 258//176
f 240//176 258//176 259//176
f 259//176 260//176 240//176
f 240//176 260//176 261//176
f 240//176 261//176 262//176
f 262//176 263//176 240//176
f 240//176 263//176 264//176
f 240//176 264//176 265//176
f 240//176 239//176 266//176
f 266//176 239//176 267//176
f 266//176 267//176 243//176
f 243//176 267//176 268//176
f 243//176 268//176 244//176
f 253//176 269//176 243//176
f 243//176 269//176 270//176
f 243//176 270//176 271//176
f 271//176 270//176 272//176
f 254//176 273//176 255//176
f 255//176 273//176 274//176
f 255//176 274//176 275//176
f 265//176 276//176 240//176
f 240//176 276//176 277//176
f 240//176 277//176 238//176
f 278//177 266//177 243//177
f 278//178 243//178 279//178
f 279//179 243//179 271//179
f 279//180 271//180 280//180
f 280//181 271//181 281//181
f 281//182 271//182 272//182
f 281//183 272//183 282//183
f 282//184 272//184 283//184
f 283//185 272//185 270//185
f 283//186 270//186 284//186
f 284//187 270//187 285//187
f 285//188 270//188 269//188
f 285//189 269//189 286//189
f 286//190 269//190 287//190
f 287//191 269//191 253//191
f 287//192 253//192 288//192
f 289//193 290//193 252//193
f 252//194 290//194 291//194
f 252//195 291//195 253//195
f 253//196 291//196 292//196
f 253//197 292//197 288//197
f 289//198 252//198 293//198
f 293//199 252//199 251//199
f 293//200 251//200 294//200
f 294//201 251//201 250//201
f 294//202 250//202 295//202
f 295//203 250//203 296//203
f 296//204 250//204 249//204
f 296//205 249//205 297//205
f 297//206 249//206 298//206
f 298//207 249//207 248//207
f 298//208 248//208 299//208
f 299//209 248//209 300//209
f 300//210 248//210 242//210
f 300//211 242//211 301//211
f 301//212 242//212 302//212
f 302//213 242//213 241//213
f 302//214 241//214 303//214
f 246//215 304//215 247//215
f 247//216 304//216 305//216
f 305//217 306//217 247//217
f 247//218 306//218 307//218
f 247//219 307//219 241//219
f 241//220 307//220 308//220
f 241//221 308//221 303//221
f 245//222 244//222 309//222
f 309//223 310//223 245//223
f 245//224 310//224 311//224
f 245//225 311//225 246//225
f 246//226 311//226 312//226
f 246//227 312//227 304//227
f 239//63 313//63 267//63
f 267//228 313//228 314//228
f 267//229 314//229 268//229
f 268//230 314//230 315//230
f 268//231 315//231 244//231
f 244//232 315//232 316//232
f 244//233 316//233 309//233
f 317//176 318//176 319//176
f 319//176 318//176 320//176
f 319//176 320//176 321//176
f 321//176 322//176 319//176
f 319//176 322//176 323//176
f 319//176 323//176 324//176
f 324//176 325//176 319//176
f 319//176 325//176 326//176
f 319//176 326//176 327//176
f 317//176 319//176 328//176
f 328//176 319//176 329//176
f 328//176 329//176 330//176
f 330//176 329//176 331//176
f 330//176 331//176 332//176
f 332//176 331//176 333//176
f 332//176 333//176 334//176
f 335//176 336//176 332//176
f 332//176 336//176 337//176
f 337//176 338//176 332//176
f 332//176 338//176 339//176
f 332//176 339//176 340//176
f 340//176 341//176 332//176
f 332//176 341//176 342//176
f 332//176 342//176 343//176
f 344//176 345//176 346//176
f 327//176 347//176 319//176
f 319//176 347//176 348//176
f 319//176 348//176 349//176
f 350//176 351//176 352//176
f 334//176 353//176 332//176
f 332//176 353//176 354//176
f 332//176 354//176 335//176
f 344//176 346//176 342//176
f 342//176 346//176 355//176
f 342//176 355//176 343//176
f 350//176 352//176 348//176
f 348//176 352//176 356//176
f 348//176 356//176 349//176
f 357//177 329//177 319//177
f 357//178 319//178 358//178
f 358//179 319//179 349//179
f 358//180 349//180 359//180
f 359//181 349//181 360//181
f 360//182 349//182 356//182
f 360//234 356//234 361//234
f 361//184 356//184 362//184
f 362//185 356//185 352//185
f 362//235 352//235 363//235
f 363//187 352//187 364//187
f 364//188 352//188 351//188
f 364//189 351//189 365//189
f 365//236 351//236 366//236
f 366//191 351//191 350//191
f 366//192 350//192 367//192
f 368//193 369//193 348//193
f 348//237 369//237 370//237
f 348//195 370//195 350//195
f 350//196 370//196 371//196
f 350//197 371//197 367//197
f 368//238 348//238 372//238
f 372//199 348//199 347//199
f 372//239 347//239 373//239
f 373//201 347//201 327//201
f 373//240 327//240 374//240
f 374//203 327//203 375//203
f 375//204 327//204 326//204
f 375//241 326//241 376//241
f 376//206 326//206 377//206
f 377//207 326//207 325//207
f 377//242 325//242 378//242
f 378//209 325//209 379//209
f 379//210 325//210 324//210
f 379//243 324//243 380//243
f 380//244 324//244 381//244
f 381//213 324//213 323//213
f 381//214 323//214 382//214
f 322//215 321//215 383//215
f 383//245 384//245 322//245
f 322//246 384//246 385//246
f 322//247 385//247 323//247
f 323//248 385//248 386//248
f 323//249 386//249 382//249
f 320//250 318//250 387//250
f 387//223 388//223 320//223
f 320//224 388//224 389//224
f 320//225 389//225 321//225
f 321//226 389//226 390//226
f 321//251 390//251 383//251
f 330//63 391//63 328//63
f 328//252 391//252 392//252
f 328//229 392//229 317//229
f 317//230 392//230 393//230
f 317//231 393//231 318//231
f 318//232 393//232 394//232
f 318//233 394//233 387//233
f 395//253 396//253 397//253
f 398//253 399//253 400//253
f 401//253 397//253 399//253
f 399//253 397//253 402//253
f 399//253 402//253 400//253
f 395//253 397//253 403//253
f 401//253 404//253 397//253
f 397//253 404//253 405//253
f 397//253 405//253 406//253
f 406//253 407//253 397//253
f 397//253 407//253 408//253
f 397//253 408//253 409//253
f 410//253 411//253 412//253
f 412//253 411//253 413//253
f 413//253 414//253 412//253
f 412//253 414//253 415//253
f 412//254 415//254 416//254
f 396//253 417//253 397//253
f 397//253 417//253 411//253
f 397//253 411//253 418//253
f 418//253 411//253 410//253
f 409//253 419//253 397//253
f 397//253 419//253 420//253
f 397//253 420//253 421//253
f 421//253 422//253 397//253
f 397//253 422//253 423//253
f 397//253 423//253 403//253
f 424//253 425//253 400//253
f 400//253 425//253 426//253
f 400//253 426//253 398//253
f 424//253 427//253 425//253
f 425//253 427//253 428//253
f 425//253 428//253 429//253
f 429//253 430//253 425//253
f 425//253 430//253 431//253
f 425//254 431//254 432//254
f 413//255 433//255 414//255
f 414//255 433//255 434//255
f 414//256 434//256 415//256
f 415//256 434//256 435//256
f 415//257 435//257 416//257
f 416//257 435//257 436//257
f 416//258 436//258 412//258
f 412//259 436//259 437//259
f 412//260 437//260 410//260
f 410//260 437//260 438//260
f 410//261 438//261 418//261
f 418//261 438//261 439//261
f 418//262 439//262 397//262
f 397//263 439//263 440//263
f 397//264 440//264 402//264
f 402//264 440//264 441//264
f 402//265 441//265 400//265
f 400//265 441//265 442//265
f 400//119 442//119 424//119
f 424//119 442//119 443//119
f 424//266 443//266 427//266
f 427//266 443//266 444//266
f 427//267 444//267 428//267
f 428//267 444//267 445//267
f 428//268 445//268 429//268
f 429//269 445//269 446//269
f 429//270 446//270 430//270
f 430//270 446//270 447//270
f 430//271 447//271 431//271
f 431//271 447//271 448//271
f 431//272 448//272 432//272
f 432//273 448//273 449//273
f 432//274 449//274 425//274
f 425//274 449//274 450//274
f 425//275 450//275 426//275
f 426//275 450//275 451//275
f 426//276 451//276 398//276
f 398//276 451//276 452//276
f 453//277 454//277 455//277
f 455//277 454//277 456//277
f 457//277 454//277 458//277
f 457//277 459//277 454//277
f 454//277 459//277 460//277
f 454//277 460//277 461//277
f 458//277 462//277 457//277
f 457//277 462//277 463//277
f 457//277 463//277 464//277
f 464//277 465//277 457//277
f 457//277 465//277 466//277
f 457//277 466//277 467//277
f 467//277 468//277 457//277
f 457//277 468//277 469//277
f 457//277 469//277 470//277
f 470//277 469//277 471//277
f 461//277 472//277 454//277
f 454//277 472//277 473//277
f 454//277 473//277 474//277
f 475//278 476//278 477//278
f 478//277 479//277 455//277
f 455//277 479//277 480//277
f 455//277 480//277 453//277
f 481//277 482//277 483//277
f 482//279 484//279 483//279
f 483//278 484//278 485//278
f 483//278 485//278 486//278
f 474//277 487//277 454//277
f 454//277 487//277 488//277
f 454//277 488//277 456//277
f 475//277 477//277 455//277
f 455//277 477//277 489//277
f 455//277 489//277 478//277
f 471//277 469//277 483//277
f 483//277 469//277 490//277
f 483//277 490//277 481//277
f 459//276 491//276 460//276
f 460//276 491//276 492//276
f 460//275 492//275 461//275
f 461//275 492//275 493//275
f 461//274 493//274 472//274
f 472//274 493//274 494//274
f 472//273 494//273 473//273
f 473//273 494//273 495//273
f 473//271 495//271 474//271
f 474//271 495//271 496//271
f 474//270 496//270 487//270
f 487//270 496//270 497//270
f 487//269 497//269 488//269
f 488//268 497//268 498//268
f 488//267 498//267 456//267
f 456//267 498//267 499//267
f 456//266 499//266 455//266
f 455//266 499//266 500//266
f 455//119 500//119 475//119
f 475//119 500//119 501//119
f 475//265 501//265 476//265
f 476//265 501//265 502//265
f 476//264 502//264 477//264
f 477//264 502//264 503//264
f 477//263 503//263 489//263
f 489//263 503//263 504//263
f 489//261 504//261 478//261
f 478//261 504//261 505//261
f 478//260 505//260 479//260
f 479//260 505//260 506//260
f 479//259 506//259 480//259
f 480//259 506//259 507//259
f 480//257 507//257 453//257
f 453//257 507//257 508//257
f 453//256 508//256 454//256
f 454//256 508//256 509//256
f 454//255 509//255 458//255
f 458//255 509//255 510//255
f 511//253 512//253 513//253
f 513//253 512//253 514//253
f 513//253 514//253 515//253
f 515//253 514//253 516//253
f 515//253 516//253 517//253
f 511//253 513//253 518//253
f 518//253 513//253 519//253
f 518//253 519//253 520//253
f 520//253 519//253 452//253
f 520//253 452//253 521//253
f 521//253 452//253 451//253
f 521//253 451//253 522//253
f 522//253 451//253 450//253
f 522//253 450//253 523//253
f 523//253 450//253 449//253
f 523//253 449//253 524//253
f 524//253 449//253 448//253
f 524//253 448//253 525//253
f 525//253 448//253 447//253
f 525//253 447//253 526//253
f 526//253 447//253 446//253
f 526//253 446//253 527//253
f 527//253 446//253 445//253
f 527//253 445//253 528//253
f 528//253 445//253 444//253
f 528//253 444//253 529//253
f 444//253 443//253 529//253
f 529//253 443//253 442//253
f 529//253 442//253 530//253
f 530//253 442//253 441//253
f 530//253 441//253 531//253
f 441//253 440//253 531//253
f 531//253 440//253 439//253
f 531//253 439//253 532//253
f 532//253 439//253 438//253
f 532//253 438//253 533//253
f 533//253 438//253 437//253
f 533//253 437//253 534//253
f 535//253 536//253 537//253
f 537//253 536//253 538//253
f 537//253 538//253 433//253
f 433//253 538//253 539//253
f 433//253 539//253 434//253
f 434//253 539//253 540//253
f 434//253 540//253 435//253
f 435//253 540//253 534//253
f 435//253 534//253 436//253
f 436//253 534//253 437//253
f 541//253 542//253 543//253
f 543//253 542//253 544//253
f 543//253 544//253 545//253
f 545//253 544//253 546//253
f 545//253 546//253 547//253
f 547//253 546//253 548//253
f 547//253 548//253 549//253
f 549//253 548//253 550//253
f 549//253 550//253 551//253
f 551//253 550//253 552//253
f 551//253 552//253 553//253
f 553//253 552//253 554//253
f 553//253 554//253 555//253
f 555//253 554//253 556//253
f 555//253 556//253 535//253
f 535//253 556//253 557//253
f 535//253 557//253 536//253
f 516//253 558//253 517//253
f 517//253 558//253 559//253
f 517//253 559//253 560//253
f 560//253 559//253 561//253
f 560//253 561//253 562//253
f 562//253 561//253 563//253
f 562//253 563//253 564//253
f 564//253 563//253 565//253
f 564//253 565//253 566//253
f 566//253 565//253 567//253
f 566//253 567//253 541//253
f 541//253 567//253 568//253
f 541//253 568//253 542//253
f 569//277 508//277 507//277
f 570//277 503//277 571//277
f 571//277 503//277 502//277
f 571//277 502//277 572//277
f 569//277 507//277 573//277
f 573//277 507//277 506//277
f 573//277 506//277 574//277
f 574//277 506//277 505//277
f 574//277 505//277 570//277
f 570//277 505//277 504//277
f 570//277 504//277 503//277
f 502//277 501//277 572//277
f 572//277 501//277 500//277
f 572//277 500//277 575//277
f 575//277 500//277 499//277
f 575//277 499//277 576//277
f 576//277 499//277 498//277
f 576//277 498//277 577//277
f 577//277 498//277 497//277
f 577//277 497//277 578//277
f 578//277 497//277 496//277
f 578//277 496//277 579//277
f 579//277 496//277 495//277
f 579//277 495//277 580//277
f 580//277 495//277 494//277
f 580//277 494//277 581//277
f 581//277 494//277 493//277
f 581//277 493//277 582//277
f 582//277 493//277 492//277
f 582//277 492//277 583//277
f 583//277 492//277 491//277
f 583//277 491//277 584//277
f 584//277 491//277 585//277
f 584//278 585//278 586//278
f 586//277 585//277 587//277
f 586//279 587//279 588//279
f 589//277 590//277 591//277
f 591//277 590//277 592//277
f 591//277 592//277 593//277
f 593//277 592//277 594//277
f 593//277 594//277 587//277
f 587//277 594//277 595//277
f 587//277 595//277 588//277
f 596//277 597//277 598//277
f 598//277 597//277 599//277
f 598//277 599//277 600//277
f 600//277 599//277 601//277
f 600//277 601//277 602//277
f 602//277 601//277 603//277
f 602//277 603//277 604//277
f 604//277 603//277 605//277
f 604//277 605//277 589//277
f 589//277 605//277 606//277
f 589//277 606//277 590//277
f 607//277 608//277 609//277
f 609//277 608//277 610//277
f 609//277 610//277 611//277
f 611//277 610//277 612//277
f 611//277 612//277 613//277
f 613//277 612//277 614//277
f 613//277 614//277 615//277
f 615//277 614//277 616//277
f 615//277 616//277 617//277
f 617//277 616//277 618//277
f 617//277 618//277 619//277
f 619//277 618//277 620//277
f 619//277 620//277 621//277
f 621//277 620//277 622//277
f 621//277 622//277 596//277
f 596//277 622//277 623//277
f 596//277 623//277 597//277
f 508//277 569//277 509//277
f 509//277 569//277 624//277
f 509//277 624//277 510//277
f 510//277 624//277 625//277
f 510//277 625//277 607//277
f 607//277 625//277 626//277
f 607//277 626//277 608//277
f 139//280 586//280 588//280
f 588//281 595//281 129//281
f 129//282 128//282 588//282
f 588//283 128//283 132//283
f 588//284 132//284 133//284
f 133//285 134//285 588//285
f 588//286 134//286 135//286
f 588//287 135//287 136//287
f 136//288 137//288 588//288
f 588//289 137//289 138//289
f 588//290 138//290 139//290
f 627//291 628//291 516//291
f 516//292 628//292 629//292
f 629//293 630//293 516//293
f 516//294 630//294 631//294
f 516//295 631//295 632//295
f 632//296 633//296 516//296
f 516//297 633//297 634//297
f 516//298 634//298 121//298
f 595//299 594//299 120//299
f 120//300 594//300 121//300
f 120//301 123//301 595//301
f 595//299 123//299 122//299
f 595//302 122//302 125//302
f 125//303 124//303 595//303
f 595//304 124//304 127//304
f 595//305 127//305 126//305
f 126//306 131//306 595//306
f 595//307 131//307 130//307
f 595//308 130//308 129//308
f 635//309 636//309 514//309
f 514//310 636//310 637//310
f 514//311 637//311 638//311
f 638//312 639//312 514//312
f 514//313 639//313 640//313
f 514//314 640//314 641//314
f 641//315 642//315 514//315
f 514//316 642//316 643//316
f 514//317 643//317 516//317
f 516//318 643//318 644//318
f 516//319 644//319 627//319
f 514//320 512//320 635//320
f 635//321 512//321 511//321
f 635//322 511//322 645//322
f 646//323 647//323 556//323
f 647//324 648//324 556//324
f 556//325 648//325 649//325
f 556//326 649//326 650//326
f 651//327 536//327 652//327
f 652//328 536//328 557//328
f 652//329 557//329 653//329
f 653//330 557//330 556//330
f 653//331 556//331 654//331
f 654//332 556//332 650//332
f 304//333 312//333 614//333
f 614//334 312//334 311//334
f 311//335 310//335 614//335
f 614//336 310//336 309//336
f 614//337 309//337 316//337
f 316//338 315//338 614//338
f 614//339 315//339 314//339
f 614//340 314//340 313//340
f 390//341 389//341 655//341
f 655//342 389//342 388//342
f 655//343 388//343 387//343
f 656//344 657//344 384//344
f 390//345 655//345 383//345
f 383//346 655//346 658//346
f 383//347 658//347 384//347
f 384//348 658//348 659//348
f 384//349 659//349 656//349
f 657//350 660//350 384//350
f 384//351 660//351 661//351
f 384//352 661//352 662//352
f 387//353 394//353 655//353
f 655//354 394//354 393//354
f 655//355 393//355 392//355
f 391//356 614//356 392//356
f 392//357 614//357 313//357
f 392//358 313//358 655//358
f 554//359 663//359 556//359
f 556//360 663//360 664//360
f 664//361 665//361 556//361
f 556//362 665//362 666//362
f 556//363 666//363 667//363
f 667//364 668//364 556//364
f 556//365 668//365 669//365
f 556//366 669//366 670//366
f 670//367 671//367 556//367
f 556//368 671//368 672//368
f 556//369 672//369 646//369
f 673//370 674//370 379//370
f 379//371 674//371 675//371
f 379//372 675//372 676//372
f 677//373 678//373 377//373
f 676//374 679//374 379//374
f 379//375 679//375 677//375
f 379//373 677//373 378//373
f 378//376 677//376 377//376
f 382//377 386//377 680//377
f 382//378 680//378 381//378
f 673//379 379//379 680//379
f 680//380 379//380 380//380
f 680//381 380//381 381//381
f 662//367 681//367 384//367
f 384//368 681//368 680//368
f 384//382 680//382 385//382
f 385//383 680//383 386//383
f 678//384 682//384 377//384
f 377//327 682//327 683//327
f 377//385 683//385 376//385
f 298//386 299//386 612//386
f 612//387 299//387 300//387
f 612//388 300//388 301//388
f 301//389 302//389 612//389
f 612//390 302//390 303//390
f 612//391 303//391 308//391
f 308//392 307//392 612//392
f 612//369 307//369 306//369
f 612//393 306//393 614//393
f 614//394 306//394 305//394
f 614//395 305//395 304//395
f 612//396 610//396 298//396
f 298//397 610//397 608//397
f 298//385 608//385 297//385
f 227//398 230//398 603//398
f 603//399 230//399 229//399
f 603//400 229//400 232//400
f 232//401 231//401 603//401
f 603//402 231//402 234//402
f 603//403 234//403 233//403
f 233//404 237//404 603//404
f 603//405 237//405 236//405
f 603//406 236//406 235//406
f 565//407 684//407 567//407
f 567//408 684//408 685//408
f 685//409 686//409 567//409
f 567//410 686//410 687//410
f 567//411 687//411 688//411
f 688//412 689//412 567//412
f 567//413 689//413 690//413
f 567//414 690//414 691//414
f 691//415 692//415 567//415
f 567//416 692//416 693//416
f 567//417 693//417 694//417
f 220//418 221//418 601//418
f 221//419 222//419 601//419
f 601//420 222//420 223//420
f 601//421 223//421 224//421
f 224//422 226//422 601//422
f 601//423 226//423 225//423
f 601//424 225//424 603//424
f 603//425 225//425 228//425
f 603//426 228//426 227//426
f 211//427 212//427 597//427
f 212//428 213//428 597//428
f 597//429 213//429 214//429
f 597//430 214//430 215//430
f 215//431 216//431 597//431
f 597//432 216//432 217//432
f 597//433 217//433 599//433
f 599//434 217//434 218//434
f 599//435 218//435 601//435
f 601//436 218//436 219//436
f 601//437 219//437 220//437
f 695//438 696//438 544//438
f 544//439 696//439 697//439
f 544//440 697//440 698//440
f 698//441 699//441 544//441
f 544//442 699//442 700//442
f 544//443 700//443 701//443
f 701//444 702//444 544//444
f 544//445 702//445 703//445
f 544//446 703//446 200//446
f 623//447 200//447 199//447
f 623//448 199//448 597//448
f 597//449 199//449 202//449
f 597//450 202//450 201//450
f 201//451 204//451 597//451
f 597//452 204//452 203//452
f 597//453 203//453 206//453
f 206//454 205//454 597//454
f 597//455 205//455 210//455
f 597//456 210//456 209//456
f 209//457 208//457 597//457
f 597//458 208//458 207//458
f 597//459 207//459 211//459
f 704//460 705//460 542//460
f 705//461 706//461 542//461
f 542//462 706//462 707//462
f 542//463 707//463 708//463
f 708//464 709//464 542//464
f 542//465 709//465 710//465
f 542//466 710//466 544//466
f 544//467 710//467 711//467
f 544//468 711//468 695//468
f 712//469 713//469 567//469
f 712//470 567//470 714//470
f 694//471 715//471 567//471
f 567//472 715//472 716//472
f 567//473 716//473 714//473
f 713//474 717//474 567//474
f 567//475 717//475 718//475
f 567//476 718//476 568//476
f 568//477 718//477 719//477
f 568//478 719//478 542//478
f 542//479 719//479 720//479
f 542//480 720//480 704//480
f 200//481 623//481 544//481
f 544//482 623//482 622//482
f 544//482 622//482 546//482
f 546//483 622//483 620//483
f 546//483 620//483 548//483
f 548//484 620//484 618//484
f 548//484 618//484 550//484
f 550//485 618//485 616//485
f 550//485 616//485 552//485
f 552//486 616//486 614//486
f 552//486 614//486 554//486
f 554//487 614//487 391//487
f 554//488 391//488 663//488
f 121//489 594//489 516//489
f 516//490 594//490 592//490
f 516//490 592//490 558//490
f 558//491 592//491 590//491
f 558//491 590//491 559//491
f 559//492 590//492 606//492
f 559//492 606//492 561//492
f 561//493 606//493 605//493
f 561//493 605//493 563//493
f 563//494 605//494 603//494
f 563//494 603//494 565//494
f 565//495 603//495 235//495
f 565//496 235//496 684//496
f 292//497 291//497 625//497
f 291//498 290//498 625//498
f 625//499 290//499 289//499
f 625//500 289//500 293//500
f 297//501 608//501 296//501
f 296//502 608//502 626//502
f 296//503 626//503 295//503
f 295//504 626//504 625//504
f 295//505 625//505 294//505
f 294//506 625//506 293//506
f 721//507 722//507 540//507
f 723//508 724//508 540//508
f 722//509 725//509 540//509
f 540//510 725//510 726//510
f 540//511 726//511 723//511
f 724//512 727//512 540//512
f 540//513 727//513 728//513
f 540//514 728//514 357//514
f 729//515 730//515 357//515
f 357//516 730//516 731//516
f 731//517 732//517 357//517
f 357//518 732//518 733//518
f 357//519 733//519 734//519
f 359//520 735//520 358//520
f 358//521 735//521 736//521
f 358//522 736//522 357//522
f 357//523 736//523 737//523
f 357//524 737//524 729//524
f 359//525 360//525 735//525
f 735//526 360//526 361//526
f 735//527 361//527 362//527
f 362//528 363//528 735//528
f 735//529 363//529 364//529
f 735//530 364//530 365//530
f 280//531 625//531 279//531
f 279//532 625//532 624//532
f 279//533 624//533 278//533
f 280//534 281//534 625//534
f 625//535 281//535 282//535
f 625//536 282//536 283//536
f 283//537 284//537 625//537
f 625//538 284//538 285//538
f 625//539 285//539 286//539
f 286//540 287//540 625//540
f 625//541 287//541 288//541
f 625//542 288//542 292//542
f 371//543 738//543 367//543
f 367//544 738//544 739//544
f 367//545 739//545 740//545
f 741//546 742//546 367//546
f 740//547 743//547 367//547
f 367//548 743//548 744//548
f 367//549 744//549 741//549
f 365//550 366//550 735//550
f 735//541 366//541 367//541
f 735//551 367//551 745//551
f 745//552 367//552 742//552
f 371//553 370//553 738//553
f 738//554 370//554 369//554
f 738//555 369//555 368//555
f 368//556 372//556 738//556
f 738//557 372//557 373//557
f 738//558 373//558 374//558
f 374//559 375//559 738//559
f 738//501 375//501 376//501
f 738//560 376//560 683//560
f 746//561 747//561 539//561
f 539//562 747//562 748//562
f 539//563 748//563 749//563
f 749//564 750//564 539//564
f 539//565 750//565 751//565
f 539//566 751//566 752//566
f 752//552 753//552 539//552
f 539//542 753//542 754//542
f 539//567 754//567 540//567
f 540//568 754//568 755//568
f 540//569 755//569 721//569
f 539//570 538//570 746//570
f 746//571 538//571 536//571
f 746//560 536//560 651//560
f 518//572 756//572 511//572
f 511//573 756//573 645//573
f 757//574 758//574 520//574
f 520//575 758//575 759//575
f 520//576 759//576 760//576
f 760//577 761//577 520//577
f 520//578 761//578 762//578
f 520//579 762//579 518//579
f 518//580 762//580 763//580
f 518//581 763//581 756//581
f 146//582 154//582 582//582
f 151//583 158//583 582//583
f 154//584 153//584 582//584
f 582//585 153//585 152//585
f 582//586 152//586 151//586
f 158//587 157//587 582//587
f 582//588 157//588 156//588
f 582//589 156//589 155//589
f 521//590 764//590 520//590
f 520//591 764//591 765//591
f 765//592 766//592 520//592
f 520//593 766//593 767//593
f 520//594 767//594 768//594
f 768//595 769//595 520//595
f 520//596 769//596 770//596
f 520//597 770//597 771//597
f 771//598 772//598 520//598
f 520//599 772//599 773//599
f 520//600 773//600 757//600
f 140//601 141//601 583//601
f 583//602 141//602 142//602
f 583//603 142//603 143//603
f 143//604 144//604 583//604
f 583//605 144//605 145//605
f 583//606 145//606 150//606
f 150//607 149//607 583//607
f 583//608 149//608 148//608
f 583//609 148//609 582//609
f 582//610 148//610 147//610
f 582//611 147//611 146//611
f 583//612 584//612 140//612
f 140//613 584//613 586//613
f 140//614 586//614 139//614
f 69//615 72//615 571//615
f 571//616 72//616 71//616
f 571//617 71//617 74//617
f 74//618 73//618 571//618
f 571//619 73//619 76//619
f 571//620 76//620 75//620
f 75//621 79//621 571//621
f 571//622 79//622 78//622
f 571//623 78//623 77//623
f 774//624 529//624 530//624
f 774//625 775//625 529//625
f 529//626 775//626 776//626
f 529//627 776//627 777//627
f 777//628 778//628 529//628
f 529//629 778//629 779//629
f 529//630 779//630 780//630
f 780//631 781//631 529//631
f 529//632 781//632 782//632
f 529//633 782//633 783//633
f 62//634 63//634 572//634
f 63//635 64//635 572//635
f 572//636 64//636 65//636
f 572//637 65//637 66//637
f 66//638 68//638 572//638
f 572//639 68//639 67//639
f 572//640 67//640 571//640
f 571//641 67//641 70//641
f 571//642 70//642 69//642
f 54//643 55//643 576//643
f 576//644 55//644 56//644
f 576//645 56//645 57//645
f 57//646 58//646 576//646
f 576//647 58//647 59//647
f 576//648 59//648 575//648
f 575//649 59//649 60//649
f 575//650 60//650 572//650
f 572//651 60//651 61//651
f 572//652 61//652 62//652
f 784//653 785//653 526//653
f 526//654 785//654 786//654
f 526//655 786//655 787//655
f 787//656 788//656 526//656
f 526//657 788//657 789//657
f 526//658 789//658 790//658
f 790//659 791//659 526//659
f 526//660 791//660 792//660
f 526//661 792//661 42//661
f 576//662 577//662 41//662
f 41//663 577//663 42//663
f 41//664 44//664 576//664
f 576//665 44//665 43//665
f 576//666 43//666 46//666
f 46//667 45//667 576//667
f 576//668 45//668 48//668
f 576//669 48//669 47//669
f 50//670 49//670 576//670
f 576//671 49//671 53//671
f 576//672 53//672 54//672
f 47//673 52//673 576//673
f 576//674 52//674 51//674
f 576//675 51//675 50//675
f 793//676 794//676 527//676
f 794//677 795//677 527//677
f 527//678 795//678 796//678
f 527//679 796//679 797//679
f 797//680 798//680 527//680
f 527//681 798//681 799//681
f 527//682 799//682 526//682
f 526//683 799//683 800//683
f 526//684 800//684 784//684
f 783//685 801//685 529//685
f 529//686 801//686 802//686
f 529//687 802//687 803//687
f 803//688 804//688 529//688
f 529//689 804//689 805//689
f 529//690 805//690 806//690
f 806//691 807//691 529//691
f 529//692 807//692 808//692
f 529//693 808//693 528//693
f 528//694 808//694 809//694
f 528//695 809//695 527//695
f 527//696 809//696 810//696
f 527//697 810//697 793//697
f 42//698 577//698 526//698
f 526//699 577//699 578//699
f 526//699 578//699 525//699
f 525//700 578//700 579//700
f 525//700 579//700 524//700
f 524//701 579//701 580//701
f 524//701 580//701 523//701
f 523//702 580//702 581//702
f 523//702 581//702 522//702
f 522//703 581//703 582//703
f 522//703 582//703 521//703
f 521//704 582//704 155//704
f 521//705 155//705 764//705
f 734//706 278//706 357//706
f 357//707 278//707 624//707
f 357//707 624//707 540//707
f 540//708 624//708 569//708
f 540//708 569//708 534//708
f 534//709 569//709 573//709
f 534//709 573//709 533//709
f 533//710 573//710 574//710
f 533//710 574//710 532//710
f 532//711 574//711 570//711
f 532//711 570//711 531//711
f 531//712 570//712 571//712
f 531//712 571//712 530//712
f 530//713 571//713 77//713
f 530//714 77//714 774//714
f 458//715 510//715 462//715
f 462//715 510//715 607//715
f 462//716 607//716 463//716
f 463//716 607//716 609//716
f 463//717 609//717 464//717
f 464//717 609//717 611//717
f 464//718 611//718 465//718
f 465//718 611//718 613//718
f 465//719 613//719 466//719
f 466//719 613//719 615//719
f 466//720 615//720 467//720
f 467//720 615//720 617//720
f 467//721 617//721 468//721
f 468//721 617//721 619//721
f 468//722 619//722 469//722
f 469//722 619//722 621//722
f 469//723 621//723 490//723
f 490//723 621//723 596//723
f 490//1 596//1 481//1
f 481//1 596//1 598//1
f 481//724 598//724 482//724
f 482//724 598//724 600//724
f 482//725 600//725 484//725
f 484//725 600//725 602//725
f 484//726 602//726 485//726
f 485//727 602//727 604//727
f 485//728 604//728 486//728
f 486//728 604//728 589//728
f 486//729 589//729 483//729
f 483//729 589//729 591//729
f 483//730 591//730 471//730
f 471//730 591//730 593//730
f 471//731 593//731 470//731
f 470//731 593//731 587//731
f 470//732 587//732 457//732
f 457//732 587//732 585//732
f 457//733 585//733 459//733
f 459//733 585//733 491//733
f 398//733 452//733 399//733
f 399//733 452//733 519//733
f 399//732 519//732 401//732
f 401//732 519//732 513//732
f 401//731 513//731 404//731
f 404//731 513//731 515//731
f 404//734 515//734 405//734
f 405//730 515//730 517//730
f 405//729 517//729 406//729
f 406//729 517//729 560//729
f 406//728 560//728 407//728
f 407//728 560//728 562//728
f 407//727 562//727 408//727
f 408//726 562//726 564//726
f 408//725 564//725 409//725
f 409//725 564//725 566//725
f 409//724 566//724 419//724
f 419//724 566//724 541//724
f 419//1 541//1 420//1
f 420//1 541//1 543//1
f 420//723 543//723 421//723
f 421//723 543//723 545//723
f 421//722 545//722 422//722
f 422//722 545//722 547//722
f 422//735 547//735 423//735
f 423//721 547//721 549//721
f 423//720 549//720 403//720
f 403//720 549//720 551//720
f 403//719 551//719 395//719
f 395//719 551//719 553//719
f 395//736 553//736 396//736
f 396//718 553//718 555//718
f 396//717 555//717 417//717
f 417//717 555//717 535//717
f 417//716 535//716 411//716
f 411//716 535//716 537//716
f 411//715 537//715 413//715
f 413//715 537//715 433//715
f 343//737 663//737 332//737
f 332//738 663//738 391//738
f 332//739 391//739 330//739
f 355//740 665//740 343//740
f 343//741 665//741 664//741
f 343//742 664//742 663//742
f 346//743 667//743 355//743
f 355//744 667//744 666//744
f 355//745 666//745 665//745
f 345//746 669//746 346//746
f 346//747 669//747 668//747
f 346//748 668//748 667//748
f 646//749 672//749 344//749
f 344//750 672//750 671//750
f 344//751 671//751 345//751
f 345//752 671//752 670//752
f 345//753 670//753 669//753
f 646//754 344//754 647//754
f 647//755 344//755 342//755
f 647//756 342//756 648//756
f 648//757 342//757 649//757
f 649//758 342//758 341//758
f 649//759 341//759 650//759
f 650//760 341//760 654//760
f 654//761 341//761 340//761
f 654//762 340//762 653//762
f 653//763 340//763 652//763
f 652//764 340//764 339//764
f 652//765 339//765 651//765
f 651//766 339//766 746//766
f 746//767 339//767 338//767
f 746//768 338//768 747//768
f 747//769 338//769 748//769
f 748//770 338//770 337//770
f 748//771 337//771 749//771
f 749//772 337//772 750//772
f 750//773 337//773 336//773
f 750//774 336//774 751//774
f 354//775 721//775 335//775
f 335//776 721//776 755//776
f 755//777 754//777 335//777
f 335//778 754//778 753//778
f 335//779 753//779 336//779
f 336//780 753//780 752//780
f 336//781 752//781 751//781
f 353//782 334//782 723//782
f 723//783 726//783 353//783
f 353//784 726//784 725//784
f 353//785 725//785 354//785
f 354//786 725//786 722//786
f 354//787 722//787 721//787
f 329//788 357//788 331//788
f 331//789 357//789 728//789
f 331//790 728//790 333//790
f 333//791 728//791 727//791
f 333//792 727//792 334//792
f 334//793 727//793 724//793
f 334//794 724//794 723//794
f 277//737 655//737 238//737
f 238//738 655//738 313//738
f 238//739 313//739 239//739
f 276//795 659//795 277//795
f 277//741 659//741 658//741
f 277//742 658//742 655//742
f 265//743 657//743 276//743
f 276//744 657//744 656//744
f 276//745 656//745 659//745
f 264//746 661//746 265//746
f 265//796 661//796 660//796
f 265//748 660//748 657//748
f 673//749 680//749 263//749
f 263//797 680//797 681//797
f 263//751 681//751 264//751
f 264//798 681//798 662//798
f 264//799 662//799 661//799
f 673//754 263//754 674//754
f 674//755 263//755 262//755
f 674//756 262//756 675//756
f 675//800 262//800 676//800
f 676//758 262//758 261//758
f 676//801 261//801 679//801
f 679//760 261//760 677//760
f 677//802 261//802 260//802
f 677//762 260//762 678//762
f 678//803 260//803 682//803
f 682//764 260//764 259//764
f 682//765 259//765 683//765
f 683//766 259//766 738//766
f 738//767 259//767 258//767
f 738//804 258//804 739//804
f 739//769 258//769 740//769
f 740//805 258//805 257//805
f 740//806 257//806 743//806
f 743//807 257//807 744//807
f 744//773 257//773 256//773
f 744//774 256//774 741//774
f 255//775 275//775 736//775
f 736//808 735//808 255//808
f 255//809 735//809 745//809
f 255//810 745//810 256//810
f 256//780 745//780 742//780
f 256//781 742//781 741//781
f 274//811 273//811 731//811
f 731//783 730//783 274//783
f 274//812 730//812 729//812
f 274//813 729//813 275//813
f 275//814 729//814 737//814
f 275//787 737//787 736//787
f 266//815 278//815 240//815
f 240//789 278//789 734//789
f 240//790 734//790 254//790
f 254//791 734//791 733//791
f 254//792 733//792 273//792
f 273//793 733//793 732//793
f 273//816 732//816 731//816
f 235//817 164//817 163//817
f 235//818 163//818 684//818
f 684//819 163//819 196//819
f 684//820 196//820 685//820
f 685//821 196//821 686//821
f 686//822 196//822 195//822
f 686//823 195//823 687//823
f 687//824 195//824 688//824
f 688//825 195//825 194//825
f 688//826 194//826 689//826
f 689//827 194//827 690//827
f 690//828 194//828 198//828
f 690//829 198//829 691//829
f 691//830 198//830 692//830
f 692//831 198//831 197//831
f 692//832 197//832 693//832
f 714//833 716//833 193//833
f 193//834 716//834 715//834
f 193//835 715//835 197//835
f 197//836 715//836 694//836
f 197//837 694//837 693//837
f 714//838 193//838 712//838
f 712//839 193//839 192//839
f 712//840 192//840 713//840
f 713//841 192//841 191//841
f 713//842 191//842 717//842
f 717//843 191//843 718//843
f 718//844 191//844 183//844
f 718//845 183//845 719//845
f 719//846 183//846 720//846
f 720//847 183//847 182//847
f 720//848 182//848 704//848
f 704//849 182//849 705//849
f 705//850 182//850 181//850
f 705//851 181//851 706//851
f 706//852 181//852 707//852
f 707//853 181//853 179//853
f 707//854 179//854 708//854
f 188//855 710//855 179//855
f 179//856 710//856 709//856
f 179//857 709//857 708//857
f 187//858 695//858 188//858
f 188//859 695//859 711//859
f 188//860 711//860 710//860
f 189//861 697//861 187//861
f 187//862 697//862 696//862
f 187//863 696//863 695//863
f 190//864 699//864 189//864
f 189//865 699//865 698//865
f 189//866 698//866 697//866
f 180//867 701//867 190//867
f 190//868 701//868 700//868
f 190//869 700//869 699//869
f 160//870 200//870 162//870
f 162//871 200//871 703//871
f 162//872 703//872 180//872
f 180//873 703//873 702//873
f 180//874 702//874 701//874
f 155//815 85//815 84//815
f 155//875 84//875 764//875
f 764//876 84//876 107//876
f 764//877 107//877 765//877
f 765//878 107//878 766//878
f 766//879 107//879 106//879
f 766//880 106//880 767//880
f 767//881 106//881 768//881
f 768//882 106//882 105//882
f 768//883 105//883 769//883
f 769//884 105//884 770//884
f 770//885 105//885 119//885
f 770//886 119//886 771//886
f 771//887 119//887 772//887
f 772//888 119//888 118//888
f 772//889 118//889 773//889
f 760//890 759//890 104//890
f 104//891 759//891 758//891
f 104//892 758//892 118//892
f 118//893 758//893 757//893
f 118//894 757//894 773//894
f 760//895 104//895 761//895
f 761//896 104//896 103//896
f 761//897 103//897 762//897
f 762//898 103//898 102//898
f 762//899 102//899 763//899
f 763//900 102//900 756//900
f 756//901 102//901 89//901
f 756//902 89//902 645//902
f 645//903 89//903 635//903
f 635//904 89//904 88//904
f 635//905 88//905 636//905
f 636//906 88//906 637//906
f 637//907 88//907 117//907
f 637//908 117//908 638//908
f 638//909 117//909 639//909
f 639//910 117//910 114//910
f 639//911 114//911 640//911
f 111//912 627//912 112//912
f 112//913 627//913 644//913
f 644//914 643//914 112//914
f 112//915 643//915 642//915
f 112//916 642//916 114//916
f 114//917 642//917 641//917
f 114//918 641//918 640//918
f 113//919 115//919 631//919
f 631//920 630//920 113//920
f 113//921 630//921 629//921
f 113//922 629//922 111//922
f 111//923 629//923 628//923
f 111//924 628//924 627//924
f 81//739 121//739 83//739
f 83//925 121//925 634//925
f 83//926 634//926 116//926
f 116//927 634//927 633//927
f 116//928 633//928 115//928
f 115//929 633//929 632//929
f 115//930 632//930 631//930
f 77//870 6//870 5//870
f 77//931 5//931 774//931
f 774//932 5//932 28//932
f 774//933 28//933 775//933
f 775//934 28//934 776//934
f 776//935 28//935 27//935
f 776//936 27//936 777//936
f 777//937 27//937 778//937
f 778//938 27//938 26//938
f 778//939 26//939 779//939
f 779//940 26//940 780//940
f 780//941 26//941 40//941
f 780//942 40//942 781//942
f 781//943 40//943 782//943
f 782//944 40//944 39//944
f 782//945 39//945 783//945
f 804//946 803//946 25//946
f 25//947 803//947 802//947
f 25//948 802//948 39//948
f 39//949 802//949 801//949
f 39//950 801//950 783//950
f 804//951 25//951 805//951
f 805//952 25//952 24//952
f 805//953 24//953 806//953
f 806//954 24//954 23//954
f 806//955 23//955 807//955
f 807//956 23//956 808//956
f 808//957 23//957 10//957
f 808//958 10//958 809//958
f 809//959 10//959 810//959
f 810//960 10//960 9//960
f 810//961 9//961 793//961
f 793//962 9//962 794//962
f 794//963 9//963 38//963
f 794//964 38//964 795//964
f 795//965 38//965 796//965
f 796//966 38//966 35//966
f 796//967 35//967 797//967
f 33//968 799//968 35//968
f 35//969 799//969 798//969
f 35//970 798//970 797//970
f 32//971 784//971 33//971
f 33//972 784//972 800//972
f 33//973 800//973 799//973
f 34//974 786//974 32//974
f 32//975 786//975 785//975
f 32//976 785//976 784//976
f 36//977 788//977 34//977
f 34//978 788//978 787//978
f 34//979 787//979 786//979
f 37//980 790//980 36//980
f 36//981 790//981 789//981
f 36//982 789//982 788//982
f 2//817 42//817 4//817
f 4//983 42//983 792//983
f 4//984 792//984 37//984
f 37//985 792//985 791//985
f 37//986 791//986 790//986
